<svg width="121" height="120" viewBox="0 0 121 120" fill="none" xmlns="http://www.w3.org/2000/svg">
<path d="M100.5 60C100.5 62.0716 98.1794 63.9363 97.8675 65.9201C97.5474 67.9567 99.1755 70.4445 98.5523 72.3637C97.9185 74.3162 95.1337 75.3721 94.2129 77.1757C93.2826 78.9983 94.0581 81.8709 92.8629 83.5132C91.6616 85.1633 88.6882 85.3085 87.2481 86.7481C85.8085 88.1877 85.6633 91.1616 84.0132 92.3629C82.3709 93.5581 79.4983 92.7826 77.6757 93.7129C75.8721 94.6337 74.8162 97.4185 72.8637 98.0523C70.9451 98.6755 68.4567 97.0474 66.4201 97.3675C64.4363 97.6794 62.571 100 60.5 100C58.429 100 56.5637 97.6794 54.5799 97.3675C52.5433 97.0474 50.0555 98.6755 48.1363 98.0523C46.1838 97.4185 45.1279 94.6337 43.3243 93.7129C41.5017 92.7826 38.6291 93.5581 36.9868 92.3629C35.3367 91.1616 35.1915 88.1882 33.7519 86.7481C32.3123 85.3085 29.3384 85.1633 28.1371 83.5132C26.9419 81.8709 27.7174 78.9983 26.7871 77.1757C25.8663 75.3721 23.0815 74.3162 22.4477 72.3637C21.8245 70.4451 23.4526 67.9567 23.1325 65.9201C22.8206 63.9363 20.5 62.071 20.5 60C20.5 57.929 22.8206 56.0637 23.1325 54.0799C23.4526 52.0433 21.8245 49.5555 22.4477 47.6363C23.0815 45.6838 25.8663 44.6279 26.7871 42.8243C27.7174 41.0017 26.9419 38.1291 28.1371 36.4868C29.3384 34.8367 32.3118 34.6915 33.7519 33.2519C35.1915 31.8123 35.3367 28.8384 36.9868 27.6371C38.6291 26.4419 41.5017 27.2174 43.3243 26.2871C45.1469 25.3569 46.1838 22.5815 48.1363 21.9477C50.0549 21.3245 52.5433 22.9526 54.5799 22.6325C56.5637 22.3206 58.429 20 60.5 20C62.571 20 64.4363 22.3206 66.4201 22.6325C68.4567 22.9526 70.9445 21.3245 72.8637 21.9477C74.8162 22.5815 75.8721 25.3663 77.6757 26.2871C79.4983 27.2174 82.3709 26.4419 84.0132 27.6371C85.6633 28.8384 85.8085 31.8118 87.2481 33.2519C88.6877 34.6915 91.6616 34.8367 92.8629 36.4868C94.0581 38.1291 93.2826 41.0017 94.2129 42.8243C95.1337 44.6279 97.9185 45.6838 98.5523 47.6363C99.1755 49.5549 97.5474 52.0433 97.8675 54.0799C98.1794 56.0637 100.5 57.929 100.5 60Z" stroke="#211951" stroke-width="3"/>
<path d="M60.4993 90.3277C77.2487 90.3277 90.8267 76.7497 90.8267 60.0003C90.8267 43.2509 77.2487 29.6729 60.4993 29.6729C43.7499 29.6729 30.1719 43.2509 30.1719 60.0003C30.1719 76.7497 43.7499 90.3277 60.4993 90.3277Z" stroke="#211951" stroke-width="3"/>
<path fill-rule="evenodd" clip-rule="evenodd" d="M52.8828 59.9713C52.8828 52.554 58.8958 46.541 66.3131 46.541C73.7305 46.541 79.7435 52.554 79.7435 59.9713C79.7435 67.3887 73.7305 73.4017 66.3131 73.4017C58.8958 73.4017 52.8828 67.3887 52.8828 59.9713ZM66.3131 49.541C60.5526 49.541 55.8828 54.2108 55.8828 59.9713C55.8828 65.7318 60.5526 70.4017 66.3131 70.4017C72.0736 70.4017 76.7435 65.7318 76.7435 59.9713C76.7435 54.2108 72.0736 49.541 66.3131 49.541Z" fill="#211951"/>
<path fill-rule="evenodd" clip-rule="evenodd" d="M66.3131 49.541C60.5526 49.541 55.8828 54.2108 55.8828 59.9713C55.8828 65.7318 60.5526 70.4017 66.3131 70.4017C72.0736 70.4017 76.7435 65.7318 76.7435 59.9713C76.7435 54.2108 72.0736 49.541 66.3131 49.541ZM52.8828 59.9713C52.8828 52.554 58.8958 46.541 66.3131 46.541C73.7305 46.541 79.7435 52.554 79.7435 59.9713C79.7435 67.3887 73.7305 73.4017 66.3131 73.4017C58.8958 73.4017 52.8828 67.3887 52.8828 59.9713Z" fill="url(#paint0_radial_1112_16129)"/>
<path d="M44.6897 70.402L44.6754 68.2048L47.319 68.2048L48.819 68.2047V66.7048V55.9949V54.2964L47.1336 54.5064L45.1852 54.7491L44.8311 52.2731L51.8289 50.0826V52.2107C52.6234 50.7309 53.638 49.3869 54.8289 48.2225V46L52.8808 46.6098L42.7174 49.7912L41.5 50.1723L41.6806 51.4351L42.4241 56.6321L42.6327 58.0903L44.0944 57.9082L45.819 57.6934V65.2048L43.1655 65.2048L41.6557 65.2048L41.6656 66.7146L41.6995 71.9118L41.7092 73.402H43.1995H56.8478C55.6417 72.5502 54.5554 71.5402 53.6191 70.402H44.6897Z" fill="#211951"/>
<defs>
<radialGradient id="paint0_radial_1112_16129" cx="0" cy="0" r="1" gradientUnits="userSpaceOnUse" gradientTransform="translate(52.499 47) rotate(43.9191) scale(37.4833)">
<stop stop-color="#15F5BA"/>
<stop offset="1" stop-color="#836FFF"/>
</radialGradient>
</defs>
</svg>
