<svg width="121" height="120" viewBox="0 0 121 120" fill="none" xmlns="http://www.w3.org/2000/svg">
<path d="M94.209 65.0534C89.3764 73.6697 74.6551 90.9475 60.4995 98C46.3426 90.9475 31.6213 73.6712 26.79 65.0534C23.1662 58.5882 21.1705 51.7106 21.5447 44.0621C21.8687 37.4176 24.8315 30.9948 29.4648 26.9052C34.098 22.8186 40.3206 21.1367 46.0816 22.4251C52.2284 23.798 57.6872 28.5827 60.5008 34.9123C63.3131 28.5827 68.7719 23.798 74.92 22.4251C80.6797 21.1367 86.9049 22.8186 91.5368 26.9067C96.17 30.9948 99.1315 37.4191 99.4556 44.0635C99.8285 51.7121 97.834 58.5897 94.209 65.0534Z" stroke="#211951" stroke-width="3"/>
<mask id="mask0_1112_16145" style="mask-type:alpha" maskUnits="userSpaceOnUse" x="21" y="21" width="79" height="78">
<path d="M94.209 65.1864C89.3764 74.0294 74.6551 91.7619 60.4995 99C46.3426 91.7619 31.6213 74.0309 26.79 65.1864C23.1662 58.5511 21.1705 51.4925 21.5447 43.6426C21.8687 36.8234 24.8315 30.2315 29.4648 26.0343C34.098 21.8401 40.3206 20.114 46.0816 21.4363C52.2284 22.8453 57.6872 27.7559 60.5008 34.2521C63.3131 27.7559 68.7719 22.8453 74.92 21.4363C80.6797 20.114 86.9049 21.8401 91.5368 26.0358C96.17 30.2315 99.1315 36.8249 99.4556 43.6441C99.8285 51.494 97.834 58.5526 94.209 65.1864Z" fill="#D32F2F"/>
</mask>
<g mask="url(#mask0_1112_16145)">
<path fill-rule="evenodd" clip-rule="evenodd" d="M41.8789 58.1211C39.9459 58.1211 38.3789 59.6881 38.3789 61.6211V68.3797C38.3789 70.3127 39.9459 71.8797 41.8789 71.8797H43.2582C45.1912 71.8797 46.7582 70.3127 46.7582 68.3797V61.6211C46.7582 59.6881 45.1912 58.1211 43.2582 58.1211H41.8789ZM41.3789 61.6211C41.3789 61.345 41.6028 61.1211 41.8789 61.1211H43.2582C43.5344 61.1211 43.7582 61.345 43.7582 61.6211V68.3797C43.7582 68.6559 43.5344 68.8797 43.2582 68.8797H41.8789C41.6028 68.8797 41.3789 68.6559 41.3789 68.3797V61.6211ZM41.8789 74.2588C39.9459 74.2588 38.3789 75.8258 38.3789 77.7588V84.5174C38.3789 86.4504 39.9459 88.0174 41.8789 88.0174H43.2582C45.1912 88.0174 46.7582 86.4504 46.7582 84.5174V77.7588C46.7582 75.8258 45.1912 74.2588 43.2582 74.2588H41.8789ZM41.3789 77.7588C41.3789 77.4826 41.6028 77.2588 41.8789 77.2588H43.2582C43.5344 77.2588 43.7582 77.4826 43.7582 77.7588V84.5174C43.7582 84.7936 43.5344 85.0174 43.2582 85.0174H41.8789C41.6028 85.0174 41.3789 84.7935 41.3789 84.5174V77.7588ZM48.2422 61.6211C48.2422 59.6881 49.8092 58.1211 51.7422 58.1211H53.1215C55.0545 58.1211 56.6215 59.6881 56.6215 61.6211V68.3797C56.6215 70.3127 55.0545 71.8797 53.1215 71.8797H51.7422C49.8092 71.8797 48.2422 70.3127 48.2422 68.3797V61.6211ZM51.7422 61.1211C51.466 61.1211 51.2422 61.345 51.2422 61.6211V68.3797C51.2422 68.6559 51.466 68.8797 51.7422 68.8797H53.1215C53.3976 68.8797 53.6215 68.6559 53.6215 68.3797V61.6211C53.6215 61.345 53.3976 61.1211 53.1215 61.1211H51.7422ZM51.7422 74.2588C49.8092 74.2588 48.2422 75.8258 48.2422 77.7588V84.5174C48.2422 86.4504 49.8092 88.0174 51.7422 88.0174H53.1215C55.0545 88.0174 56.6215 86.4504 56.6215 84.5174V77.7588C56.6215 75.8258 55.0545 74.2588 53.1215 74.2588H51.7422ZM51.2422 77.7588C51.2422 77.4826 51.466 77.2588 51.7422 77.2588H53.1215C53.3976 77.2588 53.6215 77.4826 53.6215 77.7588V84.5174C53.6215 84.7936 53.3976 85.0174 53.1215 85.0174H51.7422C51.466 85.0174 51.2422 84.7935 51.2422 84.5174V77.7588Z" fill="url(#paint0_radial_1112_16145)"/>
<path d="M86.4999 111.621V108.035V95.4829V57.7701C86.4999 57.2335 86.2842 56.7193 85.9013 56.3432L80.6935 51.2284C80.3195 50.8611 79.8163 50.6553 79.2921 50.6553H68.6043C68.0802 50.6553 67.5769 50.8611 67.2029 51.2284L61.9951 56.3432C61.6122 56.7193 61.3965 57.2335 61.3965 57.7701V95.4829V108.035V111.621M70.362 111.621V103.776C70.362 101.672 72.0679 99.9656 74.1723 99.9656V99.9656C76.2767 99.9656 77.9827 101.672 77.9827 103.776V111.621M70.362 64.1035V59.1044C70.362 58.574 70.5727 58.0652 70.9478 57.6902L72.534 56.104C73.315 55.3229 74.5814 55.3229 75.3624 56.104L76.9486 57.6902C77.3237 58.0652 77.5344 58.574 77.5344 59.1044V64.1035M70.362 64.1035H77.5344M70.362 64.1035H61.3965M77.5344 64.1035H86.4999" stroke="#211951" stroke-width="3" stroke-linejoin="round"/>
<path d="M66.5 71.52C66.5 70.6805 67.1396 70 67.9286 70H70.0714C70.8604 70 71.5 70.6805 71.5 71.52V76.08C71.5 76.9195 70.8604 77.6 70.0714 77.6H67.9286C67.1396 77.6 66.5 76.9195 66.5 76.08V71.52Z" stroke="#211951" stroke-width="3" stroke-linejoin="round"/>
<path d="M66.5 84.92C66.5 84.0805 67.1396 83.4 67.9286 83.4H70.0714C70.8604 83.4 71.5 84.0805 71.5 84.92V89.48C71.5 90.3195 70.8604 91 70.0714 91H67.9286C67.1396 91 66.5 90.3195 66.5 89.48V84.92Z" stroke="#211951" stroke-width="3" stroke-linejoin="round"/>
<path d="M76.5 71.52C76.5 70.6805 77.1396 70 77.9286 70H80.0714C80.8604 70 81.5 70.6805 81.5 71.52V76.08C81.5 76.9195 80.8604 77.6 80.0714 77.6H77.9286C77.1396 77.6 76.5 76.9195 76.5 76.08V71.52Z" stroke="#211951" stroke-width="3" stroke-linejoin="round"/>
<path d="M76.5 84.92C76.5 84.0805 77.1396 83.4 77.9286 83.4H80.0714C80.8604 83.4 81.5 84.0805 81.5 84.92V89.48C81.5 90.3195 80.8604 91 80.0714 91H77.9286C77.1396 91 76.5 90.3195 76.5 89.48V84.92Z" stroke="#211951" stroke-width="3" stroke-linejoin="round"/>
<path d="M34.5 110.724L34.5 91.8966L34.5 56.8534C37.2508 56.8534 39.4808 54.8601 39.4808 52.4012V46.1682H44.4617V42.1165C44.4617 41.29 44.829 40.4973 45.4829 39.9128C46.8445 38.6957 49.0521 38.6957 50.4137 39.9128C51.0675 40.4973 51.4349 41.29 51.4349 42.1165V46.1682H56.4157V52.4012C56.4157 54.8601 58.6457 56.8534 61.3966 56.8534V91.8966V110.724M42.569 110.724V102.265C42.569 99.2941 44.9774 96.8857 47.9483 96.8857V96.8857C50.9192 96.8857 53.3276 99.2941 53.3276 102.265V110.724" stroke="#211951" stroke-width="3" stroke-linecap="round" stroke-linejoin="round"/>
</g>
<path d="M94.209 65.0534C89.3764 73.6697 74.6551 90.9475 60.4995 98C46.3426 90.9475 31.6213 73.6712 26.79 65.0534C23.1662 58.5882 21.1705 51.7106 21.5447 44.0621C21.8687 37.4176 24.8315 30.9948 29.4648 26.9052C34.098 22.8186 40.3206 21.1367 46.0816 22.4251C52.2284 23.798 57.6872 28.5827 60.5008 34.9123C63.3131 28.5827 68.7719 23.798 74.92 22.4251C80.6797 21.1367 86.9049 22.8186 91.5368 26.9067C96.17 30.9948 99.1315 37.4191 99.4556 44.0635C99.8285 51.7121 97.834 58.5897 94.209 65.0534Z" stroke="#211951" stroke-width="3"/>
<defs>
<radialGradient id="paint0_radial_1112_16145" cx="0" cy="0" r="1" gradientUnits="userSpaceOnUse" gradientTransform="translate(38.1183 58.6319) rotate(57.639) scale(34.2591 31.0007)">
<stop stop-color="#15F5BA"/>
<stop offset="1" stop-color="#836FFF"/>
</radialGradient>
</defs>
</svg>
