<svg width="121" height="120" viewBox="0 0 121 120" fill="none" xmlns="http://www.w3.org/2000/svg">
<path d="M21.5 59.4V47C21.5 45.8954 22.3954 45 23.5 45H49.6163L97.5 45C98.6046 45 99.5 45.8954 99.5 47V59.4V60.5548C99.5 61.6575 98.5976 62.5304 97.519 62.7597C93.2219 63.6731 90.0001 67.4632 90.0001 72C90.0001 76.5428 93.2127 80.337 97.5138 81.244C98.5946 81.4719 99.5 82.3454 99.5 83.45V84.6V97C99.5 98.1046 98.6046 99 97.5 99H49.6163H23.5C22.3954 99 21.5 98.1046 21.5 97V84.6V83.5C21.5 82.3954 22.4055 81.5219 23.4859 81.2917C27.7871 80.375 31 76.5429 31 72C31 67.4632 27.7782 63.6731 23.481 62.7597C22.4024 62.5304 21.5 61.6575 21.5 60.5548V59.4Z" stroke="#211951" stroke-width="3" stroke-linejoin="round"/>
<path fill-rule="evenodd" clip-rule="evenodd" d="M26.8197 37.4953C26.553 37.5668 26.3947 37.8409 26.4661 38.1077L28.3128 44.9996H25.207L23.5684 38.8841C23.0681 37.017 24.1761 35.0978 26.0432 34.5975L46.3951 29.1443L83.9988 19.0684C85.8659 18.5681 87.7851 19.6761 88.2854 21.5432L90.8046 30.9449L90.9525 31.4969C91.4687 33.4236 90.2688 35.1073 88.9178 35.8726C86.4748 37.2567 85.1923 40.1166 85.9326 42.8792C86.1442 43.6691 86.5017 44.3831 86.9697 44.9996H83.5085C83.3189 44.5712 83.1599 44.1226 83.0348 43.6557C81.9251 39.5144 83.86 35.29 87.4391 33.2624C87.6867 33.1221 87.8765 32.9209 87.9804 32.7235C88.079 32.536 88.0855 32.3883 88.0547 32.2733L87.9068 31.7214L85.3876 22.3197C85.3162 22.053 85.042 21.8947 84.7752 21.9661L47.1715 32.042L26.8197 37.4953ZM80.077 44.9996L76.8333 32.8939C76.0471 29.9598 73.0313 28.2186 70.0972 29.0048L43.0513 36.2517C40.1172 37.0379 38.376 40.0538 39.1622 42.9878L39.7012 44.9996H42.8071L42.06 42.2114C41.7026 40.8777 42.4941 39.5069 43.8277 39.1495L70.8736 31.9026C72.2073 31.5452 73.5782 32.3367 73.9355 33.6704L76.9712 44.9996H80.077ZM98.5352 62.3141C98.2364 62.5269 97.8878 62.6808 97.5186 62.7593C95.6581 63.1547 93.9992 64.0895 92.7161 65.3906L96.1633 64.4669C97.2975 64.163 98.1516 63.3355 98.5352 62.3141Z" fill="#211951"/>
<rect x="38.5" y="53" width="44" height="38" rx="4" stroke="#211951" stroke-width="3"/>
<path fill-rule="evenodd" clip-rule="evenodd" d="M49 72C49 65.6487 54.1487 60.5 60.5 60.5C66.8513 60.5 72 65.6487 72 72C72 78.3513 66.8513 83.5 60.5 83.5C54.1487 83.5 49 78.3513 49 72ZM60.5 57.5C52.4919 57.5 46 63.9919 46 72C46 80.0081 52.4919 86.5 60.5 86.5C68.5081 86.5 75 80.0081 75 72C75 63.9919 68.5081 57.5 60.5 57.5ZM62 64C62 63.1716 61.3284 62.5 60.5 62.5C59.6716 62.5 59 63.1716 59 64V72C59 72.8284 59.6716 73.5 60.5 73.5H68C68.8284 73.5 69.5 72.8284 69.5 72C69.5 71.1716 68.8284 70.5 68 70.5H62V64Z" fill="url(#paint0_radial_1112_16171)"/>
<defs>
<radialGradient id="paint0_radial_1112_16171" cx="0" cy="0" r="1" gradientUnits="userSpaceOnUse" gradientTransform="translate(45.5856 57.9955) rotate(43.9191) scale(40.4687)">
<stop stop-color="#15F5BA"/>
<stop offset="1" stop-color="#836FFF"/>
</radialGradient>
</defs>
</svg>
