<svg width="121" height="120" viewBox="0 0 121 120" fill="none" xmlns="http://www.w3.org/2000/svg">
<path fill-rule="evenodd" clip-rule="evenodd" d="M45.5 21C42.4624 21 40 23.4624 40 26.5C40 29.5376 42.4624 32 45.5 32C48.5376 32 51 29.5376 51 26.5C51 23.4624 48.5376 21 45.5 21ZM37 26.5C37 21.8056 40.8056 18 45.5 18C50.1944 18 54 21.8056 54 26.5C54 31.1944 50.1944 35 45.5 35C40.8056 35 37 31.1944 37 26.5ZM29.5 48.1825C29.5 42.0066 34.5066 37 40.6825 37H50.3175C55.2131 37 59.3738 40.1459 60.8886 44.5263C59.8524 44.616 58.8807 44.9314 58.0231 45.4232C56.8909 42.2618 53.8683 40 50.3175 40H40.6825C36.1634 40 32.5 43.6634 32.5 48.1825V64.736C32.5 66.9748 33.9714 68.87 36 69.5071V47.428C36 46.5996 36.6716 45.928 37.5 45.928C38.3284 45.928 39 46.5996 39 47.428V96.532C39 97.8837 40.1079 99 41.5 99C42.8921 99 44 97.8837 44 96.532V69.252C44 68.4236 44.6716 67.752 45.5 67.752C46.3284 67.752 47 68.4236 47 69.252V96.532C47 97.8837 48.1079 99 49.5 99C50.8921 99 52 97.8837 52 96.532V78.0639C52.7648 78.7286 53.7636 79.131 54.8564 79.131C54.8805 79.131 54.9 79.1505 54.9 79.1745V97.2439C54.9 97.3355 54.9038 97.4262 54.9114 97.516C54.4446 100.074 52.1906 102 49.5 102C47.9277 102 46.5046 101.342 45.5 100.285C44.4954 101.342 43.0723 102 41.5 102C38.4738 102 36 99.5632 36 96.532V72.5956C32.2987 71.8935 29.5 68.6416 29.5 64.736V48.1825ZM61.5 58.5C60.4264 58.5 59.4093 58.2583 58.5 57.8264V58.7609C59.2443 58.5902 60.0194 58.5 60.8155 58.5H61.5ZM54.3589 60.7701C54.1156 60.5999 53.8194 60.5 53.5 60.5C52.6716 60.5 52 61.1716 52 62V63.4557C52.6256 62.4289 53.4256 61.52 54.3589 60.7701Z" fill="#211951"/>
<path fill-rule="evenodd" clip-rule="evenodd" d="M75.9191 21C72.9092 21 70.4692 23.4624 70.4692 26.5V29.5C70.4692 30.8807 71.5783 32 72.9464 32H78.8918C80.2599 32 81.369 30.8807 81.369 29.5V26.5C81.369 23.4624 78.929 21 75.9191 21ZM67.4965 26.5C67.4965 21.8056 71.2674 18 75.9191 18C80.5707 18 84.3416 21.8056 84.3416 26.5V29.5C84.3416 32.5376 81.9016 35 78.8918 35H72.9464C69.9365 35 67.4965 32.5376 67.4965 29.5V26.5ZM63.9385 44.9252C65.9967 40.1455 70.6857 37 75.9191 37C81.5234 37 86.5035 40.6072 88.2969 45.9656L91.8294 56.5198C93.3488 61.0593 92.2364 66.0485 88.9996 69.4887L90.174 74.9549C90.2692 75.3982 90.1605 75.8612 89.8784 76.2143C89.5962 76.5674 89.1709 76.7727 88.7214 76.7727H87.209L83.7348 98.248C83.3848 100.412 81.5327 102 79.3605 102C78.2296 102 77.1976 101.573 76.4145 100.869C75.6315 101.573 74.5995 102 73.4686 102C71.2964 102 69.4443 100.412 69.0943 98.248L68.0923 92.0542V79.1745C68.0923 79.1505 68.1116 79.131 68.1354 79.131C68.4313 79.131 68.7203 79.1009 68.9995 79.0437L72.0281 97.7646C72.1434 98.477 72.7533 99.0002 73.4686 99.0002C74.2747 99.0002 74.9282 98.3407 74.9282 97.5272V76.7727H71.9723C72.279 76.1742 72.4522 75.4948 72.4522 74.7745V73.7727H86.8783L80.9799 46.3178C80.806 45.5082 81.3154 44.7096 82.1176 44.5341C82.9198 44.3585 83.7112 44.8726 83.8851 45.6822L88.1735 65.6434C89.592 63.2144 89.9365 60.2388 89.0131 57.4798L85.4806 46.9257C84.0952 42.7864 80.2483 40 75.9191 40C71.7132 40 67.9624 42.63 66.4819 46.5754C65.7714 45.8512 64.9054 45.2827 63.9385 44.9252ZM59.5671 58.2091C59.5428 58.3367 59.5204 58.4645 59.5 58.5924C59.9494 58.5315 60.4081 58.5 60.8741 58.5H61.5524H62.2307C62.3348 58.5 62.4385 58.5016 62.5419 58.5047C62.5476 58.4787 62.5534 58.4527 62.5594 58.4268C62.2306 58.475 61.8944 58.5 61.5524 58.5C60.8625 58.5 60.1961 58.3983 59.5671 58.2091ZM77.9009 76.7727H84.197L80.801 97.7646C80.6857 98.477 80.0758 99.0002 79.3605 99.0002C78.5544 99.0002 77.9009 98.3407 77.9009 97.5272V76.7727Z" fill="#211951"/>
<path fill-rule="evenodd" clip-rule="evenodd" d="M56.5 51.5C56.5 48.4624 58.9624 46 62 46C65.0376 46 67.5 48.4624 67.5 51.5C67.5 54.5376 65.0376 57 62 57C58.9624 57 56.5 54.5376 56.5 51.5ZM67.4677 58.0082C69.3217 56.449 70.5 54.1121 70.5 51.5C70.5 46.8056 66.6944 43 62 43C57.3056 43 53.5 46.8056 53.5 51.5C53.5 54.1121 54.6783 56.449 56.5323 58.0082C52.3897 59.8444 49.5 63.9925 49.5 68.8155V74.7745C49.5 77.5062 51.3702 79.801 53.9 80.4484V97.2439C53.9 99.8895 56.068 102 58.7 102C59.9727 102 61.1369 101.506 62 100.698C62.8631 101.506 64.0273 102 65.3 102C67.932 102 70.1 99.8895 70.1 97.2439V80.4484C72.6298 79.801 74.5 77.5062 74.5 74.7745V68.8155C74.5 63.9925 71.6103 59.8444 67.4677 58.0082ZM62 60H61.3155C56.4468 60 52.5 63.9468 52.5 68.8155V74.7745C52.5 76.3521 53.7789 77.631 55.3564 77.631C56.2089 77.631 56.9 78.322 56.9 79.1745V97.2439C56.9 98.1949 57.6869 99 58.7 99C59.7131 99 60.5 98.1949 60.5 97.2439V84.0065C60.5 83.1781 61.1716 82.5065 62 82.5065C62.8284 82.5065 63.5 83.1781 63.5 84.0065V97.2439C63.5 98.1949 64.2869 99 65.3 99C66.3131 99 67.1 98.1949 67.1 97.2439V79.1745C67.1 78.322 67.7911 77.631 68.6436 77.631C70.2211 77.631 71.5 76.3521 71.5 74.7745V68.8155C71.5 63.9468 67.5532 60 62.6845 60H62Z" fill="url(#paint0_radial_1112_16191)"/>
<defs>
<radialGradient id="paint0_radial_1112_16191" cx="0" cy="0" r="1" gradientUnits="userSpaceOnUse" gradientTransform="translate(49.1428 44.0082) rotate(66.2493) scale(62.394 46.0355)">
<stop stop-color="#15F5BA"/>
<stop offset="1" stop-color="#836FFF"/>
</radialGradient>
</defs>
</svg>
