<svg width="33" height="32" viewBox="0 0 33 32" fill="none" xmlns="http://www.w3.org/2000/svg">
<path d="M12.5003 29.3337C13.2367 29.3337 13.8337 28.7367 13.8337 28.0003C13.8337 27.2639 13.2367 26.667 12.5003 26.667C11.7639 26.667 11.167 27.2639 11.167 28.0003C11.167 28.7367 11.7639 29.3337 12.5003 29.3337Z" stroke="white" stroke-width="2.66667" stroke-linecap="round" stroke-linejoin="round"/>
<path d="M23.167 29.3337C23.9034 29.3337 24.5003 28.7367 24.5003 28.0003C24.5003 27.2639 23.9034 26.667 23.167 26.667C22.4306 26.667 21.8337 27.2639 21.8337 28.0003C21.8337 28.7367 22.4306 29.3337 23.167 29.3337Z" stroke="white" stroke-width="2.66667" stroke-linecap="round" stroke-linejoin="round"/>
<path d="M3.16699 2.66699H4.90854C5.23657 2.66699 5.40058 2.66699 5.53257 2.72731C5.64888 2.78047 5.74745 2.86596 5.81653 2.97359C5.89491 3.09572 5.9181 3.25808 5.96449 3.58281L6.59556 8.00033M6.59556 8.00033L7.99809 18.3089C8.17607 19.617 8.26506 20.2711 8.57779 20.7635C8.85336 21.1973 9.24844 21.5423 9.71547 21.7568C10.2455 22.0003 10.9056 22.0003 12.2258 22.0003H23.6363C24.893 22.0003 25.5214 22.0003 26.0349 21.7742C26.4877 21.5748 26.8761 21.2534 27.1567 20.846C27.4749 20.3838 27.5925 19.7665 27.8276 18.532L29.5925 9.26658C29.6752 8.83207 29.7166 8.61481 29.6566 8.44499C29.604 8.29602 29.5002 8.17057 29.3637 8.09102C29.2081 8.00033 28.987 8.00033 28.5446 8.00033H6.59556Z" stroke="white" stroke-width="3" stroke-linecap="round" stroke-linejoin="round"/>
</svg>
