<svg width="164" height="64" viewBox="0 0 164 64" fill="none" xmlns="http://www.w3.org/2000/svg">
<rect x="25.8721" y="24.6328" width="4.44109" height="7.40193" transform="rotate(10.5421 25.8721 24.6328)" fill="#FDBF60"/>
<rect x="27.9043" y="13.916" width="4.5053" height="7.70208" transform="rotate(10.5421 27.9043 13.916)" fill="#98B7FE"/>
<rect x="26.2695" y="6.75293" width="4.5053" height="3.80753" transform="rotate(10.5421 26.2695 6.75293)" fill="#FDBF60"/>
<rect x="23.8398" y="34.9795" width="4.57913" height="7.17529" transform="rotate(10.5421 23.8398 34.9795)" fill="#98B7FE"/>
<rect x="15.1602" y="11.9717" width="4.41404" height="7.17529" transform="rotate(10.5421 15.1602 11.9717)" fill="#98B7FE"/>
<rect x="11.2744" y="32.4287" width="4.44109" height="7.31886" transform="rotate(10.5421 11.2744 32.4287)" fill="#FDBF60"/>
<path d="M97.8307 26.6222C97.2265 26.6568 96.6261 26.6914 95.9949 26.7299C96.1335 27.1918 96.3374 27.3919 96.8224 27.3842C97.9692 27.3649 99.1161 27.4304 100.263 27.4612C101.621 27.4958 102.984 27.5343 104.342 27.5689C104.354 27.6844 104.365 27.796 104.377 27.9114C103.03 27.8806 101.679 27.8537 100.332 27.8229C100.105 27.8191 99.8742 27.7806 99.6472 27.7806C98.5927 27.7767 97.542 27.7806 96.4529 27.7806V28.7927C96.2143 29.9511 95.4985 30.7401 94.4324 31.1673C93.809 31.4174 93.1278 31.529 92.4697 31.7022C91.6038 31.5367 90.7071 31.4598 89.8796 31.175C89.1253 30.9171 88.4749 30.3591 87.7283 30.0705C86.1543 29.4662 84.5494 28.9505 82.9561 28.3963C82.5867 28.2693 82.2172 28.1308 81.8478 27.9999C81.9324 28.2193 82.0671 28.354 82.2172 28.4733C82.7868 28.939 83.3564 29.4008 83.9337 29.8588C84.9535 30.667 85.9734 31.4713 86.9971 32.2795C86.9201 32.368 86.8431 32.4565 86.7623 32.5489C85.1113 31.2558 83.4603 29.9588 81.8093 28.6657C81.4975 28.4194 81.182 28.1808 80.8741 27.9461C80.5277 28.0307 80.2506 28.531 79.8735 28.1154C79.3616 27.5535 78.7689 27.9153 78.2224 27.9499C77.6452 27.9846 77.0756 28.1192 76.5022 28.2116C74.1007 28.5503 71.703 28.889 69.3016 29.2276C68.4587 29.3469 67.6159 29.4585 66.7731 29.5894C65.2067 29.828 63.6442 30.0705 62.0779 30.3129C60.5962 30.5092 59.1145 30.6939 57.6367 30.9056C55.8433 31.1634 54.0499 31.4405 52.2565 31.7138C52.1218 31.733 51.9871 31.7753 51.8562 31.8023C51.2789 31.8754 50.7055 31.9408 50.1282 32.0255C48.2809 32.2872 46.4375 32.5489 44.594 32.8183C43.6281 32.9607 42.6659 33.1223 41.7 33.2763C40.3992 33.4649 39.0984 33.6573 37.7975 33.8459C37.4358 33.8997 37.074 33.9575 36.7123 34.0113C35.9118 34.1268 35.1113 34.2423 34.3069 34.3577C32.5482 34.6002 30.7894 34.8388 29.0306 35.0851C28.8189 35.1159 28.615 35.1582 28.4033 35.1967C27.4219 35.3275 26.4444 35.4584 25.463 35.5931C24.9935 35.6854 24.524 35.7778 24.0545 35.8702C23.8466 35.8971 23.635 35.9241 23.4272 35.951C22.9268 36.0164 22.4227 36.0818 21.9224 36.1473C21.6915 36.1781 21.4606 36.2088 21.2258 36.2396C20.6947 36.3243 20.1636 36.4128 19.6325 36.4975C19.3824 36.5244 19.1322 36.5514 18.882 36.5822C18.4241 36.6476 17.9699 36.713 17.512 36.7784C17.2349 36.8169 16.9578 36.8516 16.6807 36.89C16.1573 36.9632 15.6377 37.0401 15.1143 37.1133C14.895 37.1517 14.6756 37.1864 14.4601 37.2249C13.9367 37.298 13.4133 37.3711 12.8937 37.4442C12.6474 37.4789 12.4011 37.5097 12.1548 37.5443C11.6199 37.6328 11.0888 37.7213 10.5538 37.8137C10.3268 37.8445 10.1036 37.8714 9.8765 37.9022C9.37619 37.9676 8.87589 38.033 8.37558 38.0946C8.12927 38.1293 7.87912 38.1601 7.63281 38.1947C7.66745 37.9984 7.70593 37.8021 7.74057 37.6059C8.00612 37.5712 8.26782 37.5366 8.53337 37.5058C9.03368 37.4211 9.53398 37.3365 10.0304 37.248C10.2498 37.2172 10.4692 37.1902 10.6885 37.1594C11.2389 37.094 11.7931 37.0247 12.3434 36.9593C13.3209 36.8054 14.3023 36.6553 15.2798 36.5013C15.7801 36.4128 16.2843 36.3205 16.7846 36.2319C17.0117 36.2242 17.2426 36.2127 17.4696 36.205C18.0007 36.1242 18.528 36.0434 19.0591 35.9625C19.3092 35.9279 19.5594 35.8894 19.8095 35.8548C20.3368 35.7701 20.8679 35.6855 21.3951 35.6008C21.6145 35.57 21.83 35.5392 22.0494 35.5046C22.5651 35.4353 23.0808 35.366 23.5926 35.2968C24.5163 35.1736 25.4438 35.0466 26.3674 34.9234C26.4636 34.8965 26.556 34.8696 26.6522 34.8426C27.9376 34.6771 29.2269 34.5232 30.5123 34.3423C31.3243 34.2269 32.1287 34.0691 32.9407 33.9267C33.8451 33.7997 34.7495 33.6727 35.6539 33.5457C36.0619 33.4879 36.466 33.4302 36.8739 33.3763C37.2241 33.3148 37.5743 33.2532 37.9245 33.1916C38.6635 33.0915 39.4062 32.9915 40.1451 32.8914C42.3196 32.5912 44.4978 32.2949 46.6722 31.9909C47.6344 31.8562 48.5965 31.6945 49.5548 31.5444C50.2437 31.4444 50.9326 31.3443 51.6214 31.2481C51.7292 31.2173 51.837 31.1865 51.9486 31.1557H51.9409C52.4835 31.098 53.03 31.048 53.5727 30.9749C54.8542 30.8017 56.1396 30.6208 57.4212 30.4361C58.7027 30.2513 59.9843 30.0512 61.2659 29.8588L62.8284 29.5894C64.3985 29.37 65.9649 29.1545 67.5351 28.9351C67.3157 28.8774 67.1002 28.8659 66.8885 28.8813C65.8071 28.9582 64.7257 29.039 63.6481 29.1237C63.8367 28.939 64.0291 28.7543 64.2177 28.5695C65.0643 28.5041 65.911 28.4387 66.7538 28.3656C67.2041 28.3271 67.6544 28.2655 68.1047 28.2116C69.367 28.0962 70.6293 27.9807 71.8955 27.8614C72.9307 27.7652 73.966 27.6613 75.0012 27.5651C76.3713 27.4381 77.7452 27.3572 79.1076 27.1725C79.5117 27.1186 79.9004 26.8069 80.2468 26.5491C80.343 26.4759 80.2853 26.1719 80.2699 25.9756C80.189 25.0327 80.1005 24.0898 80.0159 23.147C80.139 23.1354 80.2583 23.1277 80.3815 23.1162C80.4084 23.17 80.4584 23.2201 80.4661 23.274C80.5354 24.2168 80.597 25.1597 80.6701 26.1026C80.6893 26.3335 80.7355 26.5606 80.7702 26.7915C80.824 26.7992 80.8741 26.8069 80.928 26.8146C81.8016 25.2213 82.1787 23.4394 82.7945 21.7461C82.9176 21.7499 83.0446 21.7538 83.1678 21.7615C83.1216 21.9693 83.087 22.181 83.0216 22.3849C82.7021 23.374 82.375 24.3631 82.0517 25.3483C82.0402 25.3522 82.0286 25.356 82.0209 25.3637C82.0171 25.3676 82.0209 25.3791 82.0171 25.3906C82.0286 25.3791 82.044 25.3637 82.0556 25.3522C82.1595 25.2713 82.2711 25.2059 82.3635 25.1136C82.8869 24.5863 83.4026 24.0514 83.9221 23.5203C83.9067 23.7011 83.8875 23.8782 83.8721 24.0591C83.4988 24.4632 83.1216 24.8595 82.7599 25.2713C82.452 25.6254 82.1633 25.9987 81.867 26.3643C81.8555 26.3797 81.8401 26.3951 81.8285 26.4105C81.8439 26.399 81.8593 26.3836 81.8747 26.372C82.0594 26.3066 82.2519 26.2566 82.4327 26.1757C82.9369 25.9564 83.4372 25.7255 83.9414 25.5023C84.0607 25.5715 84.1761 25.6408 84.2954 25.7101C83.9991 25.8679 83.7104 26.0372 83.4103 26.1796C82.7983 26.4682 82.1826 26.7453 81.5668 27.0263C81.5822 27.0686 81.5976 27.1148 81.613 27.1571L85.8464 26.1757C86.1812 26.2142 86.516 26.2527 86.8508 26.2874C85.8695 26.5452 84.8881 26.7992 83.9029 27.0571C84.5225 27.0917 85.1382 26.9839 85.7386 27.034C86.4429 27.0917 86.8932 26.7569 87.3088 26.2874C87.8938 25.9487 88.4788 25.61 89.0676 25.2713C89.2331 25.2329 89.4024 25.1944 89.5679 25.1597C90.2298 25.0366 90.8918 24.9173 91.5576 24.7941C92.3927 24.6402 93.224 24.4862 94.0591 24.3323C94.1284 24.4208 94.1938 24.5093 94.2631 24.5978C93.9013 24.6979 93.5396 24.8018 93.1778 24.9019C93.1701 24.9442 93.1624 24.9866 93.1509 25.0289C94.0591 25.1328 94.7519 25.6216 95.41 26.1796C95.5062 26.2604 95.6563 26.3258 95.7794 26.3258C96.3759 26.3181 96.9725 26.2874 97.569 26.2643L97.8461 26.6414L97.8307 26.6222ZM89.0599 29.574C89.0599 29.574 89.0253 29.5509 89.0099 29.5355C89.0214 29.5509 89.0368 29.5701 89.0483 29.5855C89.2138 29.7433 89.3639 29.9165 89.541 30.0512C90.5262 30.7786 91.6423 30.9826 92.8391 30.8633C93.4549 30.7593 94.0322 30.5708 94.494 30.1436C94.4786 30.1012 94.4594 30.0589 94.444 30.0166C94.0014 30.1513 93.5588 30.2821 93.1162 30.4168C91.8616 30.4822 90.6609 30.3129 89.541 29.701C89.3986 29.624 89.2215 29.6125 89.0599 29.574ZM86.5622 28.4772C86.5622 28.4772 86.5891 28.4887 86.6045 28.4964C86.593 28.4887 86.5776 28.481 86.566 28.4772C86.4814 28.1539 86.5314 27.6805 86.0734 27.6651C84.8573 27.6228 83.6412 27.6497 82.4558 27.6497C82.7791 27.719 83.1447 27.7998 83.5103 27.8729C84.5263 28.0769 85.5462 28.277 86.566 28.4772H86.5622ZM87.2896 29.5047C87.1857 29.0583 86.9201 28.9236 86.5814 28.8697C86.2659 28.8158 85.9541 28.7389 85.6424 28.6811C85.2729 28.608 84.8996 28.5464 84.5263 28.4772C84.5186 28.508 84.5109 28.5349 84.5032 28.5657C85.4115 28.8736 86.3159 29.1776 87.2934 29.5086L87.2896 29.5047Z" fill="#211951"/>
<path d="M37.9166 33.1834C37.5664 33.2449 37.2161 33.3065 36.8698 33.3681C37.2662 31.236 37.6587 29.1001 38.0628 26.968C38.4053 25.163 38.7633 23.3619 39.1135 21.5608C39.406 20.0599 39.6907 18.5551 39.9794 17.0542C40.1718 16.0536 40.3642 15.053 40.5605 14.0293C38.8749 13.7098 37.2392 13.3981 35.6036 13.0864C34.2104 12.8131 32.8173 12.5283 31.4164 12.2705C29.8 11.9703 28.176 11.6932 26.5557 11.4084C25.6013 11.2121 24.6507 11.0082 23.6924 10.8196C21.8798 10.4617 20.0633 10.1153 18.2468 9.76509C17.0306 9.52263 15.8145 9.28018 14.5984 9.03772C14.3713 8.99154 14.2212 9.01463 14.1827 9.29942C14.1173 9.76509 14.0095 10.2231 13.9249 10.6849C13.5285 12.8478 13.1398 15.0145 12.7395 17.1773C12.3701 19.1747 12.0122 21.1721 11.6119 23.1657C11.0539 25.9558 10.4727 28.746 9.88007 31.5285C9.45289 33.522 8.98337 35.504 8.53694 37.4899C8.27139 37.5245 8.00969 37.5591 7.74414 37.5938C7.8519 36.9972 7.96735 36.4046 8.07126 35.8081C8.0982 35.6426 8.09436 35.4732 8.10205 35.3039C8.25215 34.6189 8.41378 33.9415 8.54463 33.2526C8.8833 31.4785 9.19119 29.7004 9.5414 27.9301C10.2149 24.5396 10.9153 21.1529 11.5888 17.7585C11.939 15.9997 12.2546 14.2371 12.5933 12.4783C12.9089 10.8542 13.236 9.23784 13.5593 7.61376C13.6131 7.34052 13.6401 7.03649 14.0557 7.1404C14.1789 6.67857 14.2943 6.25524 14.4136 5.80496C14.6407 5.84729 14.81 5.87423 14.6869 6.17442C14.6022 6.38224 14.5522 6.617 14.5368 6.84021C14.5252 7.04033 14.5868 7.24431 14.6715 7.44443C14.5984 7.99092 14.5984 7.99477 15.1949 8.11022C15.5374 8.17565 15.8838 8.22568 16.2263 8.28341C17.5887 8.55665 18.951 8.8299 20.3057 9.10314C20.4789 8.86069 20.425 8.44505 20.8715 8.52202C20.9022 8.52587 20.9792 8.35653 21.0139 8.25647C21.1216 7.93704 21.214 7.61376 21.3217 7.27509C21.5834 7.2674 21.7297 7.30973 21.6104 7.60607C21.5257 7.82158 21.4603 8.04095 21.4026 8.26416C21.3564 8.43735 21.1947 8.61823 21.4911 8.76832C21.5642 8.80296 21.5026 9.10314 21.5026 9.33021C22.3031 9.48415 23.1498 9.68812 24.0119 9.77663C24.2081 9.79588 24.5737 9.45336 24.6392 9.2186C24.924 8.21029 25.4704 7.20582 24.8701 6.12439C24.8162 6.02432 24.82 5.89732 24.7893 5.73953C25.0125 5.75108 25.1895 5.75878 25.3665 5.76647C26.4326 5.67411 27.5025 5.59329 28.5647 5.47783C28.6763 5.46629 28.8264 5.28541 28.8648 5.15456C28.9688 4.7928 29.0265 4.41564 29.1112 4C29.292 4.05003 29.4306 4.08852 29.623 4.13855C29.5576 4.49646 29.4768 4.83513 29.4498 5.17765C29.4383 5.33544 29.4768 5.5625 29.5845 5.65487C30.4196 6.35915 31.2586 7.07497 32.4016 7.39055C31.3394 8.24877 31.1855 9.42257 31.0931 10.6233C31.0662 10.9658 31.224 11.1967 31.5473 11.266C32.0052 11.3699 32.4709 11.4353 32.9366 11.5085C33.0251 11.5239 33.1252 11.4931 33.2098 11.5085C33.7255 11.6239 34.0668 11.4533 34.2335 10.9966C34.4875 11.0736 34.6338 10.9966 34.6954 10.7272C34.7569 10.4578 34.8455 10.1961 34.9494 9.94212C34.984 9.8613 35.1148 9.81897 35.1995 9.75739C35.2303 9.85745 35.3111 9.96521 35.288 10.0499C35.2034 10.3732 35.0841 10.6926 34.9648 11.0505C35.4266 11.2314 35.161 11.5777 35.1148 11.9357C35.95 12.0973 36.7697 12.2512 37.5895 12.4129C38.3245 12.5553 39.0557 12.7015 39.7908 12.8516C40.0256 12.9016 40.1603 12.8516 40.2257 12.5976C40.2834 12.3705 40.2064 12.0011 40.6606 12.0781C40.6837 12.0819 40.7491 11.8972 40.7799 11.7971C40.8799 11.4623 40.9723 11.1236 41.0685 10.7773C41.2109 10.8157 41.3148 10.8427 41.4187 10.8696C41.3033 11.2968 41.1878 11.7278 41.0685 12.182C41.6112 12.3782 41.1801 12.7823 41.2686 13.1018C41.3956 13.1325 41.5265 13.1672 41.742 13.2211C41.6343 13.8176 41.5342 14.4141 41.4187 15.0068C40.9069 17.6084 40.3835 20.2061 39.8832 22.8077C39.4021 25.3054 38.9441 27.807 38.4785 30.3085C38.4669 30.3701 38.4669 30.4317 38.4631 30.4932C38.4207 30.6741 38.3784 30.855 38.3361 31.032C38.2014 31.744 38.0667 32.4598 37.9281 33.1718L37.9166 33.1834ZM28.353 7.62146C28.099 7.62146 27.9143 7.57528 27.768 7.62916C27.437 7.75231 26.9406 7.84468 26.8367 8.09098C26.575 8.70675 26.498 9.39948 26.3479 10.0499C26.6404 10.1461 26.8521 10.2577 27.0714 10.2769C27.3524 10.2962 27.7411 10.4886 27.8488 10.0037C28.0182 9.23784 28.176 8.46814 28.353 7.62146ZM28.7263 7.6484C28.684 7.72152 28.6185 7.7908 28.6031 7.86777C28.4723 8.47199 28.3453 9.08005 28.2221 9.68812C28.1195 10.2013 28.3299 10.5091 28.8533 10.6118C28.9572 10.631 29.0573 10.6464 29.165 10.6656C29.2535 10.2423 29.3074 9.83436 29.4267 9.44566C29.6923 8.5605 29.5614 8.1795 28.7263 7.64455V7.6484Z" fill="#211951"/>
<path d="M7.63239 38.1821C7.8787 38.1475 8.12885 38.1167 8.37516 38.082C8.30588 38.8748 8.24431 39.6715 8.16734 40.4643C8.13655 40.7683 8.23276 40.8876 8.55219 40.9453C11.0268 41.3956 13.4975 41.8651 15.9721 42.3308C16.0607 42.3462 16.1453 42.3847 16.2877 42.427C16.103 43.4353 15.926 44.4398 15.7335 45.4443C15.4103 47.1569 15.0754 48.8656 14.7483 50.5743C14.6367 51.1593 14.552 51.752 14.4096 52.3293C14.325 52.6795 14.4327 52.8065 14.7676 52.8334C14.9946 52.8527 15.214 52.9181 15.4526 52.9681C15.4988 53.3222 15.545 53.657 15.5873 54.0072C14.2134 53.7571 12.9049 53.5185 11.6002 53.2837C10.5226 53.0682 9.4412 52.8527 8.36361 52.641C7.26678 52.4255 6.16995 52.2138 5 51.9868C5.11161 51.3941 5.21937 50.8283 5.32712 50.2626C5.93134 47.1068 6.53556 43.951 7.13978 40.7952C7.30527 39.9255 7.46306 39.0557 7.62469 38.1821H7.63239ZM7.28218 51.2594C7.43227 51.321 7.57466 51.4056 7.73245 51.4403C8.29049 51.5596 8.84852 51.6712 9.41041 51.7712C10.3418 51.9406 11.2769 52.1022 12.2083 52.2677C12.5431 52.3447 12.8741 52.4178 13.2666 52.5102C13.867 49.4044 14.4558 46.3487 15.0408 43.316C12.6778 42.8581 10.3802 42.4155 8.01339 41.9575C7.38224 45.0094 6.75493 48.0574 6.10453 51.1978C6.55096 51.2209 6.91272 51.244 7.27833 51.2632L7.28218 51.2594Z" fill="#211951"/>
<path d="M148.135 55.4087C147.657 55.1585 147.65 54.7083 147.646 54.258C147.988 53.3767 148.011 52.5569 147.192 51.9027C147.184 51.8988 147.192 51.8757 147.207 51.7564C147.503 51.9181 147.765 52.0643 148.042 52.2183C147.946 51.6872 147.854 51.1638 147.761 50.6404C147.877 49.7244 147.927 48.7931 148.123 47.8964C148.289 47.1459 148.165 46.5917 147.503 46.1876C147.138 45.872 146.772 45.5565 146.353 45.1985C146.153 45.6758 145.826 45.5488 145.537 45.4102C145.337 45.314 145.183 45.1293 145.002 44.9984C144.736 44.806 144.459 44.6251 144.19 44.4365C143.397 43.8054 142.754 43.0742 142.423 42.0851C141.927 40.6073 141.996 39.1756 142.785 37.8325C143.212 37.1012 143.413 36.3431 143.428 35.5195C143.436 35.0154 143.428 34.515 143.428 33.9455C143.085 34.211 142.801 34.4612 142.489 34.669C141.565 35.2809 140.476 35.3848 139.429 35.5657C138.856 35.6657 138.394 35.2655 138.021 34.8922C137.674 34.5458 137.351 34.161 137.305 33.5952C137.266 33.1411 136.832 33.1026 136.451 33.0911C135.869 33.0718 135.608 32.8255 135.623 32.2867C135.377 32.2714 135.127 32.256 134.846 32.2406C135.119 31.8903 135.411 31.8288 136.562 31.8519C136.516 31.6671 136.47 31.4901 136.424 31.3169C136.466 31.2861 136.508 31.2515 136.551 31.2207C136.681 31.3554 136.808 31.4901 136.935 31.6286C137.455 32.1905 138.005 32.6254 138.864 32.5792C139.221 32.56 139.591 32.7486 139.922 32.4599C140.872 32.179 141.827 31.898 142.778 31.6094C143.582 31.3669 144.382 31.1168 145.187 30.8743C145.51 30.7781 145.664 30.247 145.452 29.9815C145.248 29.7198 145.067 29.435 144.863 29.1463C144.113 29.4465 144.436 30.1316 144.328 30.655C143.763 30.4741 143.332 29.2195 143.543 28.3151C143.682 27.7185 143.994 27.1605 144.636 27.0835C145.175 27.0181 145.741 27.1759 146.341 27.2375C146.534 26.487 147.146 26.1099 147.865 25.8482C148.716 25.7673 149.355 26.1253 149.809 26.818C150.082 27.2298 150.194 27.6762 149.92 28.2419C149.805 28.0264 149.716 27.8763 149.639 27.7185C149.474 27.3876 149.205 27.2606 148.847 27.2914C148.416 27.3298 148.223 27.6839 148.469 28.0341C149.224 29.1156 149.012 30.2047 148.527 31.3054C148.454 31.4747 148.412 31.6556 148.335 31.8211C148.262 31.9789 148.162 32.1213 148.046 32.3175C148.065 32.3368 148.127 32.4253 148.212 32.4869C148.981 33.068 149.178 33.8993 149.251 34.796C149.285 35.2232 149.358 35.6465 149.439 36.066C149.462 36.1891 149.543 36.3508 149.639 36.397C150.201 36.6664 151.19 36.1276 151.256 35.5234C151.267 35.404 151.148 35.2617 151.063 35.15C150.879 34.9037 150.682 34.669 150.405 34.3226C150.698 34.338 150.825 34.3457 151.013 34.3573C150.848 33.9647 150.44 33.5952 150.913 33.195C151.029 33.4336 151.148 33.6722 151.283 33.9455C151.414 33.7646 151.514 33.6222 151.614 33.4798C151.66 33.4875 151.706 33.4952 151.752 33.5029C151.721 34.0455 151.691 34.5882 151.66 35.1308C152.306 35.3694 152.483 35.6311 152.483 36.3085C152.483 36.6125 152.364 36.751 152.076 36.9242C151.675 37.1628 151.383 37.5939 151.067 37.9595C150.806 38.2597 150.609 38.6176 150.328 38.8947C149.766 39.4488 149.305 39.4219 148.643 39.014C148.212 38.7484 147.7 38.6176 147.219 38.4251C147.173 38.5175 147.146 38.556 147.138 38.5945C146.972 39.4758 147.019 39.4835 147.927 39.6644C149.185 39.9145 150.428 40.2339 151.675 40.538C152.31 40.6958 152.572 41.1537 152.664 41.7772C152.726 42.1813 152.857 42.5777 152.991 42.9664C153.299 43.8285 153.634 44.6828 153.957 45.5411C154.05 45.7912 154.142 46.0452 154.238 46.2992C154.612 46.076 154.923 45.8874 155.235 45.6989C155.254 45.7296 155.27 45.7604 155.285 45.7912C155.12 46.0298 154.927 46.253 154.793 46.507C154.627 46.8149 154.7 47.1497 154.973 47.3306C155.17 47.4615 155.524 47.5461 155.712 47.4576C155.97 47.3345 156.151 47.0304 156.344 46.788C156.374 46.7533 156.313 46.5763 156.259 46.5571C156.178 46.5263 156.032 46.5378 155.974 46.5956C155.839 46.7341 155.743 46.9073 155.639 47.0612C155.451 46.7534 155.512 46.5301 155.878 46.2761C156.22 46.0375 156.651 46.0953 156.89 46.457C157.26 47.015 157.24 47.6154 156.967 48.2081C156.721 48.743 156.27 48.9316 155.705 48.9778C155.285 49.0124 154.858 49.0894 154.462 49.2241C153.63 49.5089 153.169 49.228 153.238 48.3582C153.296 47.6039 153.045 47.0805 152.38 46.738C152.326 46.711 152.283 46.6648 152.245 46.6187C152.229 46.5994 152.237 46.5609 152.229 46.4647C152.46 46.5263 152.668 46.584 152.999 46.6687C152.822 46.3608 152.718 46.1145 152.56 45.9105C151.891 45.0369 151.344 44.1056 151.183 42.9933C151.125 42.5969 150.944 42.4738 150.521 42.5892C149.92 42.7586 149.289 42.8202 148.681 42.9703C148.496 43.0164 148.285 43.1588 148.192 43.3166C148.139 43.409 148.269 43.6476 148.369 43.7823C148.862 44.4481 149.374 45.0985 149.874 45.7566C150.236 46.2299 150.351 46.738 150.07 47.2998C149.743 47.9502 149.728 48.643 149.689 49.3588C149.643 50.2709 149.455 51.1715 149.328 52.0797C149.312 52.1913 149.305 52.3029 149.289 52.4992C149.67 52.2606 149.974 52.072 150.274 51.8834L150.371 52.0181C150.197 52.2029 150.02 52.3837 149.855 52.5723C149.443 53.038 149.559 53.6961 150.117 53.9616C150.259 54.0309 150.509 54.0463 150.625 53.9655C150.763 53.8693 150.836 53.6499 150.894 53.469C150.913 53.4151 150.752 53.2381 150.729 53.2458C150.586 53.3074 150.455 53.4036 150.324 53.496C150.267 53.5383 150.228 53.5999 150.155 53.6845C149.993 53.3497 150.09 53.115 150.332 52.9418C150.625 52.7301 150.933 52.734 151.229 52.9418C151.664 53.242 151.879 53.9424 151.706 54.4735C151.537 55.0007 151.048 55.3317 150.482 55.3471C149.701 55.3625 148.924 55.401 148.142 55.4318L148.135 55.4087Z" fill="#836FFF"/>
<path d="M131.147 55.9551H127.683V55.1854C127.757 55.1546 127.849 55.1123 127.945 55.0815C128.884 54.8005 128.946 54.7236 128.946 53.7383C128.946 51.714 128.957 49.6897 128.93 47.6615C128.911 46.3646 128.58 45.9874 127.476 45.745V45.0099C128.711 44.9021 129.931 44.7944 131.151 44.6866H131.705V46.3453C131.744 46.3646 131.778 46.3838 131.817 46.3992C132.005 46.1952 132.202 45.9951 132.382 45.7834C132.84 45.2485 133.352 44.779 134.057 44.6212C135.865 44.2171 137.243 44.8098 137.593 46.8649C137.809 48.1195 137.751 49.4242 137.786 50.7057C137.813 51.7641 137.797 52.8262 137.797 53.8884C137.797 54.3618 137.951 54.7813 138.432 54.8929C138.994 55.0276 139.087 55.3509 138.96 55.8666H133.883C133.753 55.1969 133.753 55.1931 134.384 55.0122C134.753 54.9083 134.884 54.6197 134.919 54.281C134.946 54.0077 134.934 53.7268 134.934 53.4536C134.934 51.9026 134.946 50.3478 134.922 48.7968C134.915 48.285 134.865 47.7577 134.738 47.2613C134.499 46.3222 133.729 46.1221 132.929 46.5224C132.225 46.8764 131.744 47.4268 131.767 48.3389C131.817 50.1515 131.786 51.968 131.794 53.7807C131.797 54.5773 131.924 54.7582 132.667 55.0353C133.144 55.2123 132.794 55.5856 132.956 55.9513H131.151L131.147 55.9551Z" fill="#211951"/>
<path d="M147.761 50.6393C147.854 51.1627 147.946 51.6861 148.042 52.2172C147.765 52.0633 147.503 51.9209 147.207 51.7554C147.196 51.8747 147.188 51.8978 147.192 51.9016C148.011 52.5597 147.988 53.3756 147.646 54.2569C146.734 55.6655 144.767 56.2197 143.147 55.6655C142.747 55.5308 142.331 55.4461 141.931 55.3076C141.623 55.1998 141.38 55.3076 141.238 55.5462C141.088 55.804 140.892 55.7886 140.665 55.7732C140.588 54.5302 140.507 53.2871 140.43 52.0671C140.792 51.9093 140.919 52.044 141.03 52.3173C141.496 53.4757 142.266 54.3454 143.428 54.8573C143.92 55.0767 144.394 55.0613 144.863 54.8573C145.618 54.534 145.806 53.5603 145.214 52.9292C144.89 52.5867 144.49 52.3134 144.109 52.0325C143.193 51.359 142.231 50.7509 141.361 50.0235C140.48 49.2885 140.091 48.2571 140.33 47.1372C140.603 45.8671 141.353 44.905 142.693 44.5894C143.174 44.474 143.686 44.4817 144.186 44.4316C144.455 44.6202 144.732 44.8011 144.998 44.9935C145.183 45.1244 145.337 45.313 145.533 45.4053C145.825 45.5439 146.153 45.6747 146.349 45.1936C146.764 45.5516 147.13 45.8671 147.5 46.1827V48.1108C147.284 48.2032 147.153 48.0993 147.022 47.853C146.772 47.3796 146.507 46.9062 146.183 46.4868C145.602 45.7363 144.863 45.2783 143.855 45.3437C143.362 45.3745 143.047 45.59 142.851 46.0095C142.662 46.4213 142.812 46.7754 143.139 47.0294C143.755 47.5105 144.378 47.9761 145.029 48.411C146.01 49.0691 147.019 49.6849 147.761 50.6316V50.6393Z" fill="#211951"/>
<path d="M150.809 32.9057C150.517 32.7748 150.224 32.644 149.932 32.517C150.106 32.1219 150.445 31.8268 150.948 31.6318C151.067 31.8089 151.229 31.9782 151.302 32.1822C151.333 32.2668 151.198 32.4285 151.117 32.5401C151.025 32.6709 150.917 32.7864 150.813 32.9057L150.809 32.9095V32.9057Z" fill="#836FFF"/>
<path d="M150.906 33.1794C150.875 33.0871 150.84 32.9986 150.81 32.9062L150.813 32.9023C150.844 32.9947 150.875 33.0871 150.902 33.1794H150.906Z" fill="#211951"/>
<path d="M87.7632 44.6016C88.2828 44.64 88.81 44.6362 89.3219 44.7209C90.5457 44.921 91.3462 45.8215 91.5656 47.0261C91.7888 48.2461 91.7118 49.4584 91.6541 50.6822C91.6041 51.7714 91.6195 52.8643 91.6541 53.9535C91.6772 54.677 92.0274 54.9079 93.0434 54.9733C93.2512 55.6892 93.1858 55.7969 92.5431 56.0779C91.9004 56.355 91.2346 56.4011 90.5573 56.3242C89.7452 56.228 89.3912 55.897 88.9063 54.8463C88.5522 55.185 88.2058 55.5198 87.8556 55.8547C87.3976 56.0201 86.9474 56.2049 86.4817 56.3511C85.2463 56.736 83.7261 55.7123 83.5376 54.1882C83.4798 53.7187 83.4875 53.2223 83.5568 52.7527C83.6992 51.806 84.188 51.0555 85.0616 50.613C85.6504 50.3166 86.2585 50.0588 86.8627 49.7971C87.2014 49.6508 87.5516 49.5392 87.8941 49.3968C88.8986 48.985 88.9101 48.9812 88.8639 47.9113C88.8408 47.411 88.7985 46.9068 88.6907 46.4181C88.4791 45.4521 87.5901 45.3482 86.8396 45.7099C86.5625 45.8446 86.5587 46.0217 86.6087 46.3026C86.6972 46.7991 86.7626 47.3148 86.7395 47.8189C86.7126 48.3847 86.3162 48.7618 85.8082 48.858C85.0308 49.0004 84.4035 48.7849 84.1187 48.2269C83.7569 47.5149 83.7685 46.7952 84.2649 46.1448C85.0385 45.1327 86.143 44.7555 87.3553 44.6247C87.4938 44.6093 87.6324 44.617 87.7709 44.6131L87.7632 44.6016ZM88.8485 49.9587C88.4675 50.155 88.1481 50.3166 87.8364 50.486C86.4317 51.2441 86.2931 52.6681 86.5702 53.8149C86.6934 54.3306 87.1667 54.7001 87.5785 54.6732C88.0788 54.6385 88.8293 54.0651 88.8408 53.6264C88.8678 52.4487 88.8485 51.2711 88.8485 49.9626V49.9587Z" fill="#211951"/>
<path d="M76.6826 56.0741H74.1272V55.2928C74.1272 55.2928 74.1464 55.2505 74.1695 55.2466C75.301 55.0542 75.4087 54.9272 75.4087 53.7919C75.4087 51.8099 75.401 49.8279 75.3972 47.8459C75.3972 46.6029 75.1817 46.2988 74.0117 45.8793V45.1404C74.8738 45.0558 75.732 44.9711 76.5902 44.8864H78.1527V46.5067C78.1912 46.522 78.2297 46.5374 78.2682 46.5528C78.3644 46.4297 78.4452 46.2911 78.5568 46.1872C78.9879 45.7754 79.3689 45.2828 79.8692 44.9865C81.0468 44.286 82.3669 44.8094 82.6055 46.3065C82.7209 47.0147 82.7017 47.6766 82.3784 48.3155C82.0667 48.9274 81.4663 49.2583 80.9275 49.139C80.2848 48.9966 79.7845 48.4463 79.7383 47.7767C79.7075 47.3572 79.7345 46.9338 79.7345 46.5182C78.9378 46.626 78.2412 47.3918 78.2412 48.2038C78.2412 50.0319 78.2605 51.8599 78.2412 53.688C78.2336 54.8156 78.5337 55.0542 79.7152 55.2236C79.7614 55.2313 79.8037 55.2428 79.873 55.262V56.0779H76.6787L76.6826 56.0741Z" fill="#211951"/>
<path d="M86.7576 32.5451C86.8345 32.4566 86.9115 32.3681 86.9923 32.2757C87.2271 32.218 87.4618 32.1448 87.7004 32.1025C88.3277 31.9947 88.9551 31.8639 89.5862 31.8062C90.6484 31.7023 91.6875 31.8447 92.6843 32.2488C93.2808 32.9145 93.8581 33.5996 94.4892 34.2346C94.774 34.5194 95.1589 34.7041 95.4975 34.9389C95.563 35.2698 95.6669 35.597 95.69 35.9279C95.8054 37.6405 94.4392 39.1068 92.7112 39.1838C90.6099 39.28 89.0359 38.3371 87.7813 36.74C86.9423 35.4623 86.6344 34.0576 86.7576 32.5451ZM92.792 38.1909C90.5791 37.96 89.0782 36.8016 88.0545 34.7926C88.2508 36.9978 91.1911 39.0568 92.792 38.1909Z" fill="#836FFF"/>
<path d="M122.842 44.6171C124.897 45.2444 126.033 46.6992 126.383 48.7466C126.733 50.7863 126.583 52.7798 125.278 54.5155C124.639 55.366 123.777 55.8856 122.742 56.1665C121.911 56.3936 121.099 56.4051 120.275 56.1781C118.443 55.6508 117.35 54.3885 116.854 52.6028C116.346 50.7709 116.388 48.9544 117.204 47.1995C118.193 45.0674 120.329 44.2092 122.426 44.6056C122.561 44.6325 122.7 44.6133 122.838 44.6171H122.842ZM119.667 50.3861C119.709 51.2212 119.683 52.0717 119.821 52.8953C119.929 53.5457 120.179 54.1923 120.483 54.7811C120.783 55.3661 121.384 55.5315 121.965 55.3199C122.719 55.0466 122.969 54.3731 123.085 53.6919C123.25 52.7221 123.362 51.7292 123.381 50.744C123.4 49.7549 123.319 48.762 123.2 47.7806C123.135 47.2341 122.954 46.6838 122.727 46.1796C122.253 45.1367 120.772 45.1829 120.348 46.1835C120.129 46.6953 119.894 47.2226 119.817 47.7652C119.698 48.6273 119.709 49.5047 119.667 50.3861Z" fill="#211951"/>
<path d="M104.38 27.9104C104.369 27.7949 104.357 27.6833 104.346 27.5679C105.408 25.8014 106.974 24.7315 108.968 24.3005C109.483 24.1889 110.034 24.2389 110.565 24.2158C111.439 24.3159 112.278 24.5006 113.02 25.0279C114.583 26.1362 115.295 28.53 113.04 30.0617C112.862 30.181 112.682 30.2965 112.505 30.4119C112.443 30.4427 112.381 30.4735 112.32 30.5043C112.258 30.5313 112.197 30.562 112.135 30.589C111.331 30.7198 110.526 30.8507 109.726 30.9777C109.595 30.943 109.464 30.8892 109.333 30.8815C108.136 30.7968 107.063 30.3966 106.112 29.673C105.797 29.4306 105.485 29.1843 105.169 28.938C104.908 28.5954 104.646 28.2529 104.384 27.9104H104.38ZM112.685 29.1188C112.528 29.1689 112.37 29.2151 112.216 29.2728C110.977 29.7654 109.714 29.9732 108.41 29.5422C107.983 29.3998 107.555 29.2535 107.128 29.1073C107.798 29.7731 108.61 30.1118 109.514 30.2003C110.727 30.3196 111.831 30.0656 112.689 29.1188C112.701 29.0957 112.709 29.0727 112.72 29.0496L112.685 29.115V29.1188Z" fill="#836FFF"/>
<path d="M112.316 55.9826H110.23V55.1821C110.307 55.1667 110.392 55.1398 110.48 55.1321C111.184 55.0628 111.5 54.7511 111.5 54.0391C111.508 51.7992 111.5 49.5594 111.485 47.3157C111.481 46.673 111.165 46.2073 110.538 45.988C110.338 45.9187 110.134 45.8533 109.934 45.7878V45.0143C110.707 44.9681 111.465 44.9219 112.223 44.8757C112.797 44.8219 113.374 44.7757 113.948 44.7141C114.24 44.6833 114.332 44.8257 114.332 45.0913C114.332 45.5069 114.332 45.9225 114.332 46.3382C114.336 48.7666 114.34 51.195 114.344 53.6273C114.344 54.5394 114.533 54.7934 115.41 55.0936C115.479 55.1167 115.549 55.1436 115.629 55.1744V55.9826H113.79C113.42 55.9826 113.051 55.9826 112.681 55.9826C112.558 55.9826 112.435 55.9826 112.312 55.9826H112.316Z" fill="#211951"/>
<path d="M112.416 42.7737C111.546 42.4312 111.019 41.7885 110.946 40.8687C110.869 39.8719 111.308 39.1061 112.235 38.6596C113.375 38.4056 114.252 39.2408 114.356 40.5878C114.437 41.6307 113.694 42.8161 112.416 42.7737Z" fill="#211951"/>
<path d="M53.2373 56.1474H51.1514V55.116C51.7402 54.9967 52.3367 54.8928 52.9178 54.7543C53.649 54.5772 53.7722 54.3271 53.5028 53.6305C53.0448 52.4413 52.5753 51.2598 52.125 50.0668C52.0288 49.8089 51.8903 49.7281 51.617 49.7281C49.8044 49.7435 47.9879 49.7512 46.1752 49.7435C45.8943 49.7435 45.7596 49.832 45.6787 50.0937C45.3401 51.1905 44.9745 52.2797 44.6396 53.3803C44.4434 54.0307 44.5973 54.4156 45.24 54.6465C45.8558 54.8659 46.51 54.9775 47.1989 55.1468V56.159H39.8867V55.2353C40.541 54.989 41.1683 54.7504 41.7994 54.5118C42.4806 54.1038 42.8385 53.4534 43.1233 52.7453C45.19 47.5652 47.2566 42.3851 49.3271 37.205C49.6684 36.3506 50.3175 35.9722 51.2745 36.0697C51.4284 36.416 51.5824 36.7624 51.7363 37.1126C52.2636 38.4519 52.787 39.795 53.3142 41.1343C54.8382 45.0175 56.3623 48.9006 57.8863 52.78C58.4905 54.3117 59.1717 54.8543 60.7842 55.0775V56.1436H53.2334L53.2373 56.1474ZM51.4631 48.3849C50.5972 46.0912 49.7466 43.8437 48.8615 41.4999C47.9956 43.8591 47.172 46.1066 46.3368 48.3849H51.4631Z" fill="#211951"/>
<path d="M62.4007 43.4737C62.8933 42.8925 63.382 42.3114 63.9362 41.6533V45.0131H66.253C66.2761 45.0362 66.2992 45.0554 66.3223 45.0785V46.1984H64.017C64.0055 46.3947 63.9901 46.5256 63.9901 46.6603C63.9939 48.6115 63.9901 50.5665 64.017 52.5177C64.0209 52.9911 64.0709 53.4721 64.1787 53.9301C64.3134 54.5189 64.679 54.7691 65.287 54.7614C65.6796 54.7614 66.0721 54.7152 66.4685 54.6883C66.6263 55.5311 66.6186 55.5465 65.8528 55.9044C64.7175 56.4355 63.5668 56.6664 62.3776 56.0737C61.5694 55.4926 61.2038 54.6652 61.1845 53.7031C61.146 51.444 61.1537 49.1849 61.1422 46.9258C61.1422 46.7295 61.1422 46.5294 61.1422 46.2754C60.7034 46.2754 60.3071 46.2639 59.9145 46.2792C59.6182 46.2908 59.4873 46.1907 59.5104 45.8828C59.5296 45.6404 59.5104 45.3902 59.5104 45.0747C59.9145 45.0747 60.3109 45.1055 60.6996 45.0631C60.919 45.04 61.1807 44.94 61.3231 44.786C61.7118 44.3742 62.0466 43.9124 62.4007 43.4698V43.4737Z" fill="#211951"/>
<path d="M68.004 9.74603C67.1766 10.1617 66.3414 10.5696 65.5255 11.0045C65.3985 11.0738 65.2677 11.2546 65.2523 11.397C65.1984 11.9243 64.8328 12.1129 64.4133 12.2168C63.6436 12.4054 62.8662 12.5862 62.085 12.7094C61.7039 12.771 61.3037 12.6978 60.915 12.7017C60.7726 12.7017 60.5879 12.7017 60.4917 12.7825C59.9105 13.2905 59.2832 13.3675 58.5674 13.1096C58.2711 13.0019 57.9285 13.0288 57.6091 12.9672C57.3012 12.9057 56.9895 12.8402 56.7047 12.7248C56.4738 12.6324 56.3545 12.5939 56.2737 12.8903C56.1582 13.3136 55.9235 13.406 55.5809 13.1173C55.2153 12.8095 54.9075 12.8518 54.5457 13.0904C53.5143 13.7716 52.2982 13.8409 51.1321 14.0833C50.701 14.1718 50.2738 14.2103 49.9198 14.5528C49.762 14.7029 49.4387 14.6798 49.1924 14.7376C49.0192 14.3873 48.8114 14.0448 49.0038 13.6369C49.2925 13.3559 49.5965 13.2366 49.9929 13.4599C50.1083 13.5253 50.3046 13.4445 50.4663 13.4329C51.7055 12.9903 53.0486 12.8672 54.1993 12.1744C54.4687 12.0128 54.7035 11.7934 55.0191 11.551C54.6111 11.4163 54.3263 11.3586 54.08 11.2277C53.9222 11.143 53.826 10.9468 53.6913 10.8121C53.5874 10.712 53.4604 10.6312 53.3373 10.5504C52.8831 10.2425 52.429 9.9346 52.0557 9.68445C52.3944 9.12641 52.7253 8.71847 52.9101 8.2528C53.2333 7.43306 54.4995 7.10979 55.2846 7.61779C55.6194 7.83331 55.9235 8.08731 56.2621 8.34131C56.7778 8.19122 57.3243 8.02958 57.7977 7.89489C57.7669 7.57161 57.663 7.30221 57.7477 7.11364C57.8131 6.96354 58.1094 6.91351 58.3019 6.8173C58.3442 6.8173 58.3827 6.8173 58.425 6.8173C58.5443 6.75187 58.6636 6.6903 58.7791 6.62487C58.8291 6.9366 58.8791 7.24833 58.9292 7.56391C58.8868 7.57161 58.8445 7.57931 58.8022 7.587C58.8214 7.61009 58.8329 7.64088 58.856 7.66013C58.983 7.76019 59.11 7.8564 59.237 7.95646C59.0716 8.09886 58.883 8.3798 58.7444 8.35671C58.121 8.2605 57.713 8.69923 57.2089 8.88011C56.9972 8.95708 56.8009 9.06484 56.6393 9.25342C57.0395 9.27266 57.4629 9.21108 57.8285 9.32654C58.3211 9.48433 58.7714 9.70754 59.3102 9.51127C59.4179 9.47278 59.6103 9.64981 59.745 9.72293C60.4147 8.92629 61.119 8.08731 61.8194 7.24833C62.1773 6.82115 62.439 6.37087 62.2158 5.7782C62.1889 5.70892 62.3005 5.5088 62.3543 5.50495C62.5237 5.49725 62.7354 5.50495 62.8547 5.59732C63.3511 5.99371 63.8437 6.40551 64.2902 6.85578C64.4864 7.05206 64.5634 7.36379 64.7096 7.65243C65.5833 6.65951 66.8648 6.60563 68.1002 6.42475C68.5004 6.32469 68.9161 6.26311 69.2932 6.10917C69.5703 5.99756 69.8436 5.80129 70.0437 5.57423C70.4132 5.15858 70.8442 5.16243 71.1598 5.61271C71.2598 5.75126 71.4253 5.85132 71.5754 5.94368C71.8525 6.12072 72.1719 6.24387 72.4105 6.45939C72.8262 6.84039 72.8031 7.05206 72.3605 7.47155C72.6261 7.52928 72.8955 7.52543 73.0802 7.65243C73.2957 7.79867 73.5536 8.04113 73.5766 8.26819C73.6113 8.59147 73.2572 8.55683 73.0186 8.55683C72.5029 8.55683 71.9834 8.58762 71.4715 8.54529C70.6441 8.47216 69.9513 8.85317 69.2355 9.14951C68.816 9.32654 68.4158 9.5536 68.004 9.75757V9.74603ZM55.0768 11.3162C55.0768 11.3162 55.0498 11.3239 55.0383 11.3316C55.0306 11.3355 55.0345 11.3509 55.0306 11.3624C55.046 11.347 55.0614 11.3355 55.0768 11.3201C55.0883 11.3047 55.1037 11.2893 55.1153 11.2739C55.0999 11.2893 55.0845 11.3008 55.0729 11.3162H55.0768Z" fill="#836FFF"/>
<path d="M80.3736 23.1112C80.2504 23.1228 80.1311 23.1305 80.008 23.142C79.8694 23.1343 79.7116 23.169 79.5885 23.1189C77.7297 22.3608 76.3673 21.11 75.6745 19.1781C75.1357 17.6656 75.459 16.3109 76.3211 15.0293C76.9099 14.4867 77.5103 13.9171 78.3531 13.8748C79.4884 13.8209 80.6237 13.8555 81.4281 14.8754C81.5589 15.0409 81.7552 15.1525 81.9207 15.2872C83.0868 16.9844 83.2215 18.7624 82.3248 20.6174C82.2594 20.7521 82.244 20.9099 82.2016 21.0561C81.5897 21.7412 80.9817 22.4262 80.3697 23.1112H80.3736ZM80.3774 15.1948L80.3467 15.1794C80.3467 15.1794 80.3697 15.1833 80.3813 15.1871C80.7738 15.9068 81.3627 16.5303 81.3627 17.4347C81.3627 18.1236 81.4627 18.8124 81.4704 19.5013C81.4704 19.7476 81.3396 19.9939 81.2665 20.2402C81.3742 20.2172 81.4242 20.171 81.4666 20.1132C82.0823 19.2974 82.1593 18.3391 81.99 17.4039C81.8168 16.4456 81.2934 15.649 80.3736 15.191L80.3774 15.1948Z" fill="#F50B7A"/>
<path d="M34.3101 58.1756C34.2254 58.2026 34.1369 58.2642 34.0638 58.2488C32.4051 57.8716 30.7464 57.4868 29.0723 57.1019V56.5593C29.1184 56.5246 29.1454 56.49 29.1685 56.4938C30.1729 56.5862 30.3538 56.4246 30.5309 55.3316C30.7271 54.1308 30.9388 52.9301 31.1389 51.7294C31.2659 50.9674 31.3775 50.2015 31.5007 49.4241C30.9503 49.3009 30.477 49.1932 29.9459 49.0739C29.9959 48.7391 30.0382 48.435 30.0883 48.1118C30.6502 48.2234 31.1505 48.3273 31.6739 48.435C32.0587 46.7109 32.7091 45.21 34.4063 44.4287C35.4069 44.1593 36.4076 44.1247 37.3812 44.5288C38.2587 44.8944 38.6166 45.5563 38.4665 46.4723C38.3857 46.9533 37.9816 47.4036 37.566 47.4767C37.0079 47.573 36.4076 47.3228 36.1882 46.7956C35.9457 46.226 35.7995 45.6141 35.584 44.929C35.4223 45.1022 35.1953 45.2523 35.1145 45.4563C34.9066 45.9758 34.7334 46.5146 34.5987 47.0573C34.441 47.6884 34.3409 48.335 34.21 48.9969C34.9336 49.1586 35.6302 49.3163 36.3806 49.4857C36.3383 49.8013 36.2959 50.0976 36.2459 50.4478C35.5185 50.3016 34.822 50.1592 34.0715 50.0091C33.9637 50.6672 33.8714 51.2598 33.7713 51.8525C33.5443 53.2418 33.3133 54.635 33.0824 56.0243C32.9631 56.7363 33.0901 56.9941 33.729 57.3097C33.9483 57.4175 34.1716 57.5137 34.4179 57.6253C34.3794 57.8177 34.3447 57.9948 34.3101 58.1718V58.1756Z" fill="#211951"/>
<path d="M34.1493 41.3005C34.107 41.5275 34.0415 41.7508 34.0223 41.9778C33.9877 42.4743 33.7144 42.709 33.1795 42.7706C33.3142 42.0471 33.4412 41.3467 33.5797 40.6C33.0986 40.5154 32.6368 40.4384 32.125 40.3499C31.9556 41.2389 31.7824 42.0894 31.6324 42.9476C31.5438 43.4364 32.0095 43.244 32.2404 43.3902C31.9402 43.6288 31.6785 43.9098 31.363 44.0637C31.1628 44.1638 30.8665 44.106 30.6202 44.0637C29.9429 43.956 29.2732 43.8213 28.542 43.6866C29.0654 40.9657 29.5772 38.2909 30.1045 35.5508C31.5554 35.8125 32.9793 36.0703 34.4033 36.3282C34.6073 36.3859 34.8112 36.4436 35.0498 36.5129C34.7458 38.1177 34.4456 39.711 34.1454 41.3043L34.1493 41.3005ZM30.8627 43.0785C31.0435 42.1087 31.2129 41.185 31.3861 40.2344C31.0628 40.1498 30.7895 40.0536 30.5047 40.0151C29.862 39.9304 29.8274 39.9727 29.7851 40.6077C29.7735 40.7617 29.7543 40.9118 29.7273 41.0619C29.6234 41.6315 29.5157 42.1972 29.4002 42.8052C29.9005 42.8976 30.3585 42.9823 30.8588 43.0785H30.8627ZM32.0326 36.9632C31.6439 36.867 31.3283 36.8016 31.0243 36.713C30.7049 36.6207 30.5201 36.7284 30.4624 37.0479C30.3508 37.6636 30.2546 38.2832 30.1314 38.899C30.0852 39.1299 30.1314 39.2838 30.3777 39.2646C30.7934 39.2338 31.3591 39.7919 31.59 39.2223C31.871 38.5334 31.8941 37.7367 32.0326 36.9632ZM32.2558 39.6418C32.7715 39.7187 33.2333 39.788 33.7452 39.8611C33.9107 39.0068 34.0646 38.1947 34.2263 37.3557C33.699 37.2711 33.2372 37.1979 32.7446 37.1171C32.5791 37.9677 32.4252 38.7643 32.2558 39.6418Z" fill="#211951"/>
<path d="M36.7082 34.0034C37.0699 33.9495 37.4317 33.8918 37.7935 33.8379C37.3086 36.3625 36.8198 38.8872 36.3387 41.4118C36.204 42.1084 36.2117 42.1122 35.492 42.1315C35.4035 42.1315 35.3112 42.1315 35.1572 42.1315C35.6806 39.399 36.1963 36.7012 36.712 34.0034H36.7082Z" fill="#211951"/>
<path d="M24.1575 46.5371C25.5853 46.6834 26.8669 47.149 27.8136 48.292C28.4602 49.0733 28.7642 49.97 28.7796 50.9898C28.795 52.0405 28.718 53.0604 28.2254 54.0148C27.575 55.2771 26.559 56.0276 25.1543 56.2392C24.8272 56.2893 24.4924 56.3008 24.1614 56.3316C23.7996 56.2431 23.434 56.17 23.0761 56.0661C21.2635 55.5504 20.132 54.3881 19.6971 52.5447C19.3161 50.9283 19.6702 49.4504 20.59 48.1227C21.3135 47.0797 22.3603 46.5448 23.6534 46.5563C23.8227 46.5563 23.9921 46.5448 24.1575 46.5371ZM26.2203 49.6467C26.1819 49.639 26.1434 49.6275 26.1049 49.6198C26.0664 49.2734 26.0587 48.9155 25.9779 48.5807C25.8355 47.9995 25.5315 47.53 24.8926 47.3915C24.223 47.2452 23.7573 47.5685 23.434 48.1035C23.2377 48.4267 23.0684 48.7846 22.9645 49.1464C22.5527 50.5781 22.2217 52.029 22.341 53.5299C22.3795 53.9955 22.5065 54.5151 22.7682 54.8884C23.257 55.5888 24.0382 55.7351 24.6694 55.0539C24.9734 54.7268 25.2428 54.2996 25.3467 53.8724C25.6854 52.4754 25.9356 51.0553 26.2242 49.6467H26.2203Z" fill="#211951"/>
<path d="M23.4307 35.9428C23.6385 35.9158 23.8502 35.8889 24.058 35.862C23.9618 36.4585 23.8502 37.0512 23.7771 37.6477C23.7617 37.7785 23.8463 38.0325 23.9233 38.0479C24.3312 38.1287 24.7507 38.1557 25.1856 38.2019C25.3396 37.3783 25.4858 36.6047 25.6167 35.8273C25.6282 35.7581 25.5166 35.6657 25.4666 35.5849C26.4479 35.454 27.4255 35.3232 28.4068 35.1885C28.4723 35.3155 28.6031 35.454 28.5877 35.5695C28.4453 36.5393 28.2952 37.5091 28.1028 38.4713C27.8296 39.8375 27.514 41.196 27.2292 42.5622C27.1792 42.797 27.1945 43.0433 27.1715 43.355C26.1401 43.1819 25.151 43.0125 24.1619 42.847C23.5346 42.72 22.9073 42.5892 22.1953 42.4429C22.253 42.0465 22.2992 41.6463 22.3762 41.2499C22.7226 39.4796 23.0766 37.7093 23.4307 35.9428ZM25.2241 41.9503C25.6013 42.0465 25.8976 42.1158 26.1901 42.2005C26.598 42.3198 26.7828 42.162 26.8289 41.7541C26.879 41.3192 26.9367 40.8804 27.0445 40.4571C27.3138 39.4065 27.3254 39.4103 26.2978 39.1948C26.2517 39.1871 26.2055 39.1832 26.1631 39.1794C25.8437 39.1448 25.6243 39.2217 25.6436 39.6066C25.6474 39.7105 25.6051 39.8144 25.5859 39.9183C25.4666 40.5841 25.3511 41.2538 25.2279 41.9542L25.2241 41.9503ZM23.5885 38.733C23.4422 39.4488 23.3229 40.1377 23.1536 40.8112C22.965 41.5501 22.9458 41.5462 23.6924 41.6848C24.2209 41.7823 24.5416 41.5668 24.6545 41.0382C24.6622 40.9921 24.6815 40.9497 24.6892 40.9035C24.8008 40.257 24.9124 39.6066 25.024 38.9523C24.4967 38.8715 24.0388 38.8022 23.5885 38.7368V38.733ZM27.3523 38.6598C27.5255 37.7824 27.6833 36.9896 27.8449 36.1622C27.2946 36.0505 26.8597 35.9582 26.371 35.8581C26.2093 36.7202 26.0554 37.5515 25.9014 38.3828C26.4248 38.4828 26.8751 38.5675 27.3523 38.6598Z" fill="#211951"/>
<path d="M21.2297 36.2349C21.4606 36.2042 21.6915 36.1734 21.9263 36.1426C21.5491 38.1207 21.1758 40.1027 20.7794 42.1732C19.1399 41.8576 17.512 41.5459 15.8379 41.2226C16.1265 39.7486 16.4036 38.317 16.6846 36.8815C16.9617 36.843 17.2388 36.8084 17.5158 36.7699C17.766 36.8315 18.0239 36.8661 18.2586 36.9585C18.6589 37.1163 18.8397 36.9662 18.8859 36.5736C19.1361 36.5467 19.3862 36.5197 19.6364 36.4889C19.6171 36.6968 19.6017 36.9084 19.5787 37.1701C19.9981 37.251 20.4138 37.351 20.8333 37.401C20.9141 37.4087 21.0719 37.2471 21.0988 37.1393C21.1719 36.843 21.1912 36.539 21.2335 36.2349H21.2297ZM19.4055 37.8706C19.2169 38.8673 19.0399 39.8102 18.8513 40.807C19.3824 40.8917 19.8519 40.9686 20.3368 41.0494C20.5215 40.0565 20.6947 39.1329 20.8718 38.1861C20.3522 38.0745 19.8942 37.9745 19.4055 37.8706ZM18.1278 40.5953C18.2971 39.7833 18.4703 39.029 18.5973 38.2631C18.6242 38.0938 18.528 37.7628 18.4241 37.7359C18.0392 37.6281 17.6313 37.6127 17.2272 37.5704C17.2118 37.5704 17.1772 37.6435 17.1695 37.6897C17.0001 38.571 16.8347 39.4523 16.6615 40.376C17.1733 40.4529 17.6352 40.5222 18.1239 40.5953H18.1278Z" fill="#211951"/>
<path d="M14.4598 37.2161C14.6792 37.1776 14.8985 37.143 15.114 37.1045C14.8908 38.363 14.6638 39.6214 14.429 40.9338C13.5438 40.7721 12.6895 40.6182 11.8389 40.4643C11.1924 40.345 10.5535 40.191 9.90313 40.1179C9.40667 40.0602 9.44131 39.7946 9.52213 39.4482C9.64528 38.9287 9.75689 38.4091 9.87234 37.8896C10.0994 37.8588 10.3226 37.8319 10.5497 37.8011C10.4612 38.2398 10.3727 38.6785 10.2803 39.1365C10.8191 39.225 11.2848 39.302 11.7158 39.3713C11.8736 38.7093 12.0121 38.1205 12.1507 37.5317C12.397 37.497 12.6433 37.4663 12.8896 37.4316C12.7626 38.1167 12.6356 38.8055 12.5009 39.5406C13.0012 39.633 13.4707 39.7215 13.9518 39.81C14.125 38.9095 14.2905 38.0589 14.4559 37.2123L14.4598 37.2161Z" fill="#211951"/>
<path d="M69.4931 56.1168C68.6117 55.5626 68.2192 54.7121 68.2 53.723C68.1538 51.4062 68.1653 49.0894 68.1538 46.7764C68.1538 46.5955 68.1538 46.4185 68.1538 46.203H66.5566V44.9984C66.9877 44.9984 67.3995 45.0292 67.8074 44.9868C68.0191 44.9637 68.2769 44.856 68.4116 44.6982C68.8311 44.2056 69.2044 43.6745 69.5931 43.1588C69.901 42.824 70.2089 42.493 70.5129 42.1582C70.6438 42.0158 70.7631 41.8657 70.9555 41.6348V44.9753H73.3185V46.1837H71.0132C71.0017 46.3608 70.9824 46.4955 70.9824 46.6263C70.994 48.6083 71.0017 50.5903 71.0248 52.5723C71.0248 52.9071 71.0517 53.2496 71.1056 53.5806C71.2903 54.7313 71.9061 54.8698 72.8913 54.7428C73.0568 54.7197 73.2184 54.6928 73.3801 54.6697C73.5687 55.5164 73.5302 55.5934 72.8066 55.9282C71.7252 56.4285 70.6284 56.6325 69.4892 56.1283L69.4931 56.1168Z" fill="#211951"/>
<path d="M96.8417 56.0401C94.8328 55.0779 94.1901 53.3153 93.9322 51.2679C93.7821 50.0941 93.9861 49.0088 94.3787 47.9312C94.8405 46.6574 95.6525 45.676 96.834 44.9986C97.9078 44.5022 99.0546 44.4483 100.159 44.7331C102.053 45.2219 102.511 46.6497 102.183 48.2391C102.026 49.0011 101.518 49.259 100.648 49.2128C99.9167 49.1743 99.3048 48.5547 99.3163 47.8696C99.3202 47.4194 99.4279 46.9729 99.4972 46.5265C99.5472 46.2032 99.7628 45.853 99.4048 45.5952C99.0508 45.3373 98.6582 45.4104 98.3273 45.6452C98.1079 45.7991 97.9116 46.0185 97.7846 46.2533C97.3574 47.0384 97.1496 47.8927 97.1034 48.7856C97.0726 49.3475 96.9957 49.9132 97.0111 50.4751C97.038 51.3718 97.1688 52.2608 97.5691 53.0806C97.723 53.3961 97.9039 53.7079 98.1194 53.9811C98.9815 55.0818 100.275 54.9355 101.106 54.0581C101.487 53.654 101.749 53.1344 102.064 52.6688C102.734 53.1306 102.73 53.1306 102.372 53.8426C101.675 55.2319 100.598 56.1671 99.0469 56.398C98.5004 56.4788 97.9078 56.271 97.3382 56.1825C97.1727 56.1555 97.0149 56.0939 96.8533 56.0478L96.8417 56.0401Z" fill="#211951"/>
<path d="M95.4986 34.9352C95.1599 34.7043 94.7712 34.5196 94.4903 34.231C93.8629 33.596 93.2857 32.9109 92.6853 32.2451C92.616 32.0642 92.5429 31.8795 92.4736 31.6986C93.1279 31.5254 93.8091 31.4138 94.4364 31.1637C95.5024 30.7327 96.2182 29.9476 96.4569 28.7891C97.4344 28.7699 98.4119 28.6468 99.3817 28.9392C100.178 29.1778 100.89 29.5358 101.518 30.0746C101.649 30.2439 101.768 30.4209 101.91 30.5826C102.649 31.4177 102.718 32.3644 102.349 33.3612C102.226 33.696 101.983 33.9847 101.795 34.2964C101.179 34.6505 100.59 35.0699 99.9436 35.3432C98.9892 35.7473 97.9847 35.6318 96.9918 35.4394C96.9033 35.424 96.8109 35.4086 96.7224 35.3971L95.5024 34.9352H95.4986ZM100.598 34.0154C100.375 34.0578 100.151 34.1001 99.9282 34.1463C99.5241 34.2233 99.1239 34.3695 98.7198 34.3657C97.4421 34.3657 96.2298 34.0847 95.1637 33.3304C95.0252 33.2342 94.879 33.1534 94.7366 33.0649C94.7173 33.1033 94.6981 33.1418 94.6827 33.1765C95.7795 34.3503 97.1188 35.0045 98.7506 34.8082C99.4048 34.7313 100.109 34.5735 100.586 34.0077C100.594 33.9962 100.598 33.9885 100.606 33.977C100.602 33.9885 100.598 34.0001 100.59 34.0116L100.598 34.0154Z" fill="#FDBF60"/>
<path d="M105.246 43.6788C105.823 42.9899 106.401 42.301 107.043 41.5352V44.8795H109.433V46.088H107.143C107.109 46.1765 107.074 46.2342 107.074 46.2881C107.093 48.5741 107.116 50.8601 107.143 53.15C107.143 53.2116 107.147 53.2732 107.159 53.3347C107.355 54.6047 107.863 54.7548 109.068 54.6471C109.214 54.6355 109.352 54.597 109.499 54.5701C109.641 55.4861 109.656 55.5361 108.883 55.817C108.221 56.0556 107.52 56.2558 106.824 56.3058C106.37 56.3404 105.893 56.0787 105.427 55.9517C104.642 55.3437 104.299 54.5085 104.28 53.5502C104.242 51.2989 104.234 49.0436 104.215 46.7884C104.215 46.6075 104.215 46.4266 104.215 46.188C103.803 46.188 103.426 46.1726 103.048 46.1919C102.733 46.2073 102.591 46.1034 102.621 45.7762C102.641 45.5338 102.625 45.2913 102.625 44.9911C103.045 44.9911 103.441 45.0219 103.83 44.9796C104.03 44.9565 104.265 44.8564 104.407 44.714C104.715 44.3985 104.973 44.029 105.25 43.6826L105.246 43.6788Z" fill="#211951"/>
<path d="M101.79 34.2956C101.978 33.9839 102.221 33.6953 102.344 33.3604C102.713 32.3637 102.644 31.4169 101.905 30.5818C101.763 30.424 101.644 30.2431 101.513 30.0738C101.624 30.0315 101.747 30.0045 101.851 29.9429C102.875 29.3503 103.98 29.0154 105.161 28.9385C105.477 29.1848 105.788 29.4311 106.104 29.6735C107.055 30.4009 108.128 30.8012 109.325 30.882C109.456 30.8897 109.587 30.9436 109.718 30.9782C109.779 31.1475 109.829 31.3246 109.902 31.49C110.384 32.5484 110.203 33.6337 109.391 34.4919C108.244 35.7042 106.82 36.0313 105.219 35.7927C104.414 35.5695 103.591 35.3963 102.817 35.1C102.429 34.9499 102.128 34.5727 101.786 34.2995L101.79 34.2956ZM102.829 33.7106C102.771 33.6991 102.713 33.6837 102.66 33.6722C102.698 33.7068 102.737 33.7414 102.771 33.7799C103.983 35.2 107.155 35.5156 108.171 34.2494C107.92 34.3187 107.736 34.3841 107.547 34.4188C107.055 34.5073 106.554 34.6651 106.066 34.6381C104.926 34.5804 103.841 34.2533 102.829 33.7106Z" fill="#FF8911"/>
<path d="M49.0037 13.6296C48.8075 14.0414 49.0153 14.3839 49.1923 14.7303V15.4038C49.8543 15.2383 50.5547 15.5154 51.1089 14.9689C51.1743 14.9073 51.3013 14.8958 51.4014 14.8842C52.1403 14.815 52.8792 14.7495 53.6181 14.6841C53.8298 14.6649 54.0453 14.6341 54.257 14.6456C54.7227 14.6687 54.9035 15.0613 54.6418 15.45C54.3917 15.8271 53.6989 16.0965 53.2641 15.9965C53.0216 15.9426 52.7753 15.9079 52.4982 15.9503C54.3686 16.3736 56.0388 17.1664 57.4782 18.4287C58.9175 19.691 59.9336 21.2458 60.6532 23.0316C61.0111 23.0316 61.3652 23.0662 61.7116 23.0239C63.328 22.8237 65.3407 24.7865 64.902 26.8801C64.7712 27.5035 64.5364 28.0385 64.2131 28.558C64.0245 28.7428 63.8321 28.9275 63.6435 29.1122C63.3703 29.2662 63.097 29.424 62.8276 29.5779C62.3081 29.6664 61.7847 29.7549 61.2651 29.8473C60.8072 29.6972 60.3453 29.5471 59.8874 29.397C59.7103 29.2739 59.5295 29.1546 59.3524 29.0314C59.3139 28.9852 59.2793 28.9352 59.2331 28.8929C57.4513 27.2341 57.9362 24.5209 59.8181 23.4241C59.8797 23.3895 59.9297 23.3317 60.0836 23.2086C59.4179 22.1195 58.8098 20.9957 58.0786 19.9643C56.9971 18.4326 55.5655 17.3127 53.7259 16.8123C53.0408 16.6238 52.325 16.5429 51.6207 16.4159C50.8472 16.2735 50.0698 16.1389 49.2501 15.9888C49.2924 16.3544 49.3386 16.7392 49.3847 17.1241C49.8543 17.1626 50.2699 17.1626 50.674 17.2357C54.6688 17.9515 57.1472 21.4614 56.6161 25.4292C56.4122 26.9686 55.6732 28.2656 54.6341 29.4009C54.4763 29.551 54.3147 29.6972 54.1569 29.8473C53.4219 30.2822 52.6829 30.7132 51.9479 31.1481H51.9556C51.8478 31.1789 51.74 31.2097 51.6284 31.2405C50.9396 31.3405 50.2507 31.4406 49.5618 31.5368C49.023 31.4791 48.465 31.4983 47.9569 31.3482C47.2103 31.1289 46.4945 30.7863 45.7671 30.4977C45.5439 30.3438 45.3246 30.1898 45.1013 30.0359C43.8159 28.9621 42.9269 27.6459 42.5113 26.0026C41.9571 23.8167 42.4613 21.8539 43.7313 20.0682C44.7473 18.6365 46.1558 17.7321 47.8684 17.3434C48.2879 17.2472 48.2956 17.0586 48.234 16.7354C48.1109 16.0965 48.0147 15.45 47.88 14.815C47.8492 14.6803 47.6876 14.5763 47.6029 14.4455C47.5028 14.2916 47.3335 14.1107 47.3604 13.9683C47.3874 13.822 47.5952 13.6104 47.7414 13.5988C48.1609 13.5642 48.5881 13.6142 49.0114 13.6335L49.0037 13.6296ZM60.8341 25.7794C60.811 25.7525 60.7841 25.7217 60.7571 25.6986C60.7571 25.6986 60.734 25.714 60.7225 25.7255C60.7494 25.7525 60.7725 25.7794 60.7995 25.8063C60.8303 25.8179 60.861 25.8294 60.888 25.841C60.8687 25.8217 60.8495 25.8025 60.8303 25.7833L60.8341 25.7794ZM60.9919 29.3123C61.0727 29.397 61.1497 29.5548 61.2344 29.5587C61.4537 29.5702 61.6769 29.5125 61.9002 29.4817C61.8732 29.4163 61.8463 29.3547 61.8155 29.2893C61.8116 29.1353 61.8078 28.9852 61.8039 28.8313C61.7116 28.2309 61.6154 27.6267 61.523 27.0263C61.4884 27.0225 61.4576 27.0148 61.4229 27.0109C61.3113 27.6267 61.1997 28.2425 61.0843 28.8544C61.0535 29.0045 61.0227 29.1546 60.9919 29.3047V29.3123ZM51.1435 30.1013C51.0935 29.9589 51.0473 29.8165 50.9973 29.6741C50.7471 28.9698 50.497 28.2694 50.2468 27.5651C50.2045 27.5805 50.166 27.5959 50.1237 27.6113C50.243 28.304 50.3623 28.9968 50.4816 29.6895C50.5047 29.8357 50.5316 29.9858 50.5547 30.1321C50.5624 30.2706 50.5816 30.4092 50.5701 30.5439C50.5316 30.9056 50.6586 31.0326 51.0127 30.8941C51.1358 30.8479 51.2628 30.821 51.4206 30.7748C51.3167 30.5208 51.2282 30.313 51.1435 30.1013ZM62.9431 28.7274C62.9085 28.6119 62.8738 28.4965 62.8392 28.381C63.3587 28.9006 63.4973 28.9121 63.9283 28.4695C63.836 28.3656 63.7436 28.2617 63.6512 28.1578C63.6628 28.1424 63.6743 28.1232 63.6897 28.1078C63.8167 28.177 63.9437 28.2463 64.1131 28.3387C64.2785 28.0269 64.4363 27.7306 64.6095 27.4035C63.8167 27.1687 63.074 26.934 62.3235 26.7377C61.8925 26.6261 61.9348 26.9109 62.0118 27.188C61.9617 27.2726 61.854 27.3765 61.8732 27.4343C62.0271 27.8807 62.2042 28.3194 62.3735 28.7582C62.4312 28.939 62.4928 29.1238 62.5583 29.3239C62.8007 29.2508 62.997 29.193 63.2471 29.1199C63.1201 28.9621 63.0316 28.8467 62.9393 28.7312L62.9431 28.7274ZM60.8841 28.9352C60.9957 28.3964 61.1112 27.8538 61.2344 27.2765C61.0804 27.3611 60.9881 27.415 60.8957 27.4651C60.9342 27.3458 60.9688 27.2226 61.0073 27.1033C61.0265 27.0571 61.0419 27.0148 61.0612 26.9686C61.0227 26.9955 60.9842 27.0263 60.9496 27.0533C60.8418 27.1302 60.734 27.2072 60.6263 27.2842C60.6763 27.1649 60.7264 27.0417 60.811 26.8377C60.0798 27.2111 59.4217 27.5497 58.6212 27.9615C58.9214 28.1732 59.1292 28.3233 59.3409 28.4734C59.5064 28.712 59.668 28.9506 59.8951 29.2777C60.0644 28.966 60.1491 28.7928 60.2491 28.6273C60.3992 28.3849 60.5647 28.1539 60.7225 27.9192L60.2607 28.9544C59.922 29.5163 60.5609 29.2777 60.7494 29.4855C60.7956 29.3047 60.8418 29.1199 60.888 28.939L60.8841 28.9352ZM52.96 29.9435C52.8715 29.8204 52.783 29.6934 52.6945 29.5702C51.7901 28.2694 50.8857 26.9686 49.9813 25.6639L49.8735 25.7409C50.3584 27.0533 50.8433 28.3618 51.3244 29.6741C51.3744 29.8011 51.4283 29.9243 51.4783 30.0513C51.5438 30.2629 51.613 30.4746 51.6939 30.7363C52.1172 30.5323 52.5021 30.3553 52.8715 30.1629C52.9254 30.1359 52.9292 30.0205 52.96 29.9474V29.9435ZM46.6831 30.4207C47.0833 30.5824 47.4836 30.7402 47.93 30.921C47.9646 30.6555 47.9877 30.49 48.007 30.3245C48.0378 30.1744 48.0647 30.0205 48.0955 29.8704C48.3687 28.508 48.6381 27.1418 48.9114 25.7794C48.8767 25.7679 48.8383 25.7563 48.8036 25.7448C48.0801 27.1456 47.3604 28.5426 46.6369 29.9435C46.583 30.109 46.2559 30.3014 46.6831 30.4207ZM61.2421 25.637L61.2998 25.7871C61.2998 25.7871 61.3383 25.7794 61.3537 25.7717C61.3421 25.7063 61.3306 25.637 61.319 25.5716C61.2113 24.7942 61.0997 24.0168 60.9881 23.2009C60.7764 23.2663 60.6109 23.3163 60.3877 23.3818C60.684 24.163 60.9611 24.8981 61.2421 25.6332V25.637ZM60.8649 25.46C60.8918 25.5023 60.9226 25.5485 60.9496 25.5908C60.9688 25.5831 60.9842 25.5793 61.0034 25.5716C60.9881 25.51 60.9727 25.4484 60.9573 25.3869C60.734 24.748 60.507 24.1091 60.2645 23.4241C60.0336 23.555 59.8681 23.6473 59.7103 23.7358C59.7411 23.8975 59.7642 24.0168 59.7912 24.1399C59.7065 24.0668 59.618 23.9898 59.4448 23.8397C59.2985 24.1207 59.1754 24.3631 59.0522 24.6018C58.5866 24.698 58.6558 25.129 58.4634 25.4523C59.2639 25.6793 60.0067 25.8949 60.838 26.1335C60.6532 25.8949 60.5416 25.7486 60.43 25.6062C60.5917 25.6563 60.7725 25.7255 60.7071 25.4253C60.7571 25.4369 60.811 25.4446 60.8611 25.4561L60.8649 25.46ZM61.9155 25.6139C61.9232 25.6716 61.9348 25.7255 61.9425 25.7833C62.0156 25.7217 62.0887 25.6639 62.1618 25.6024C62.4813 25.3291 62.7969 25.0559 63.1163 24.7826C62.8469 25.1021 62.5736 25.4176 62.3042 25.7371C62.2427 25.7717 62.1811 25.8025 62.1234 25.8371C62.1311 25.8564 62.1388 25.8795 62.1465 25.8987C62.2311 25.8756 62.3196 25.8525 62.4043 25.8294C63.0509 25.5062 63.6936 25.1867 64.3401 24.8635C64.3555 24.8057 64.3671 24.7518 64.3824 24.6941C64.1438 24.5402 63.9052 24.3862 63.6666 24.2323C63.7397 23.7628 63.301 23.7782 63.0509 23.5396C62.7045 24.2169 62.3812 24.8519 62.0618 25.4831C62.0118 25.5293 61.9656 25.5754 61.9155 25.6216C61.9694 25.4561 62.0041 25.2829 62.081 25.1252C62.3466 24.5864 62.6314 24.0514 62.9431 23.4433C62.6275 23.3818 62.3928 23.3356 62.1734 23.2894C62.0233 24.0283 61.8886 24.698 61.7578 25.3676C61.7308 25.4946 61.6654 25.6716 61.9232 25.6101L61.9155 25.6139ZM48.3456 30.3053C48.2995 30.5092 48.2533 30.7094 48.1879 30.9942H50.2969C50.2314 30.7017 50.166 30.4207 50.1044 30.1359C50.1006 30.0128 50.0929 29.8896 50.089 29.7665C49.862 28.3849 49.7927 26.9763 49.4579 25.6139C49.3847 25.6139 49.3116 25.6139 49.2385 25.6139C48.973 27.0302 48.7036 28.4426 48.438 29.8588C48.4072 30.0089 48.3764 30.159 48.3456 30.3091V30.3053ZM48.1917 23.3702C48.234 23.3933 48.2764 23.4203 48.3187 23.4433C48.2995 23.3933 48.2802 23.3471 48.2648 23.2971C47.2912 21.8885 46.3136 20.48 45.3515 19.0868C44.9205 19.4794 44.5241 19.8411 44.093 20.2337C45.5131 21.319 46.8524 22.3427 48.1917 23.3664V23.3702ZM48.6189 25.3407C47.3335 26.5837 46.0442 27.8307 44.7049 29.1276C45.213 29.5125 45.6594 29.8511 46.125 30.2014C46.2097 30.0821 46.2636 30.0282 46.2944 29.9627C47.0487 28.5196 47.803 27.0764 48.5496 25.6332C48.5958 25.5446 48.5958 25.4369 48.615 25.3368C48.6343 25.3291 48.6535 25.3214 48.6728 25.3137C48.6651 25.3137 48.6535 25.306 48.6497 25.3099C48.6381 25.3176 48.6304 25.333 48.6227 25.3445L48.6189 25.3407ZM55.9696 26.476C54.1877 25.9526 52.5251 25.4638 50.8626 24.9828C50.751 24.952 50.6124 25.0135 50.3469 25.0559C51.9017 26.2566 53.3295 27.3611 54.8458 28.5349C55.2268 27.8384 55.5809 27.188 55.9696 26.476ZM43.9083 20.4415C43.585 21.1265 43.2964 21.7346 42.9885 22.385C44.7973 22.9123 46.4907 23.4087 48.1879 23.9013C48.2071 23.8628 48.2225 23.8282 48.2417 23.7897C46.8293 22.6967 45.4208 21.6076 43.9122 20.4415H43.9083ZM50.7664 24.5055C50.7625 24.5556 50.7548 24.6056 50.751 24.6556C52.4828 25.1636 54.2108 25.6678 56.0273 26.1989C56.0966 25.5331 56.1582 24.9058 56.2197 24.2785C54.3417 24.3555 52.5521 24.4324 50.7625 24.5055H50.7664ZM52.6752 18.3325C51.7939 20.022 50.9588 21.6268 50.1237 23.2317C50.166 23.2625 50.2122 23.2933 50.2545 23.324C51.5014 21.9925 52.7522 20.6609 54.0184 19.31C53.6797 19.0637 53.214 18.7251 52.6752 18.3325ZM48.1686 24.317C48.1725 24.2746 48.1802 24.2361 48.184 24.1938C46.4483 23.6897 44.7088 23.1855 42.9115 22.6659C42.8192 23.3548 42.746 23.9167 42.6614 24.544C44.5702 24.4671 46.3675 24.3901 48.1648 24.317H48.1686ZM54.3763 19.6102C53.0639 20.9957 51.817 22.308 50.6009 23.5934C52.1634 22.7891 53.7836 21.954 55.4577 21.0919C55.0844 20.5839 54.7611 20.1413 54.3724 19.6102H54.3763ZM54.6726 28.7543C53.1371 27.569 51.6939 26.4529 50.1737 25.2791C50.2006 25.4369 50.1968 25.4869 50.216 25.5177C51.1397 26.8377 52.0595 28.1578 53.0062 29.4624C53.0909 29.5779 53.4219 29.6549 53.5412 29.5856C53.926 29.3624 54.2685 29.0622 54.6688 28.7582L54.6726 28.7543ZM49.7735 23.0046C49.8119 23.02 49.8543 23.0354 49.8928 23.0508C50.724 21.4575 51.5592 19.8681 52.4251 18.2132C51.8747 18.0362 51.3783 17.8745 50.8395 17.7014C50.47 19.5332 50.1237 21.2689 49.7735 23.0085V23.0046ZM48.2494 25.1175C46.6831 25.9218 45.1437 26.7146 43.5234 27.5459C43.8775 28.0308 44.1931 28.4618 44.5625 28.9698C45.8326 27.6421 47.0256 26.3952 48.2494 25.1175ZM45.5093 18.8521C46.5368 20.3107 47.5105 21.6923 48.4842 23.0739C48.5188 23.0585 48.5496 23.0431 48.5843 23.0316C47.9993 21.4113 47.4143 19.7911 46.8062 18.117C46.3675 18.3671 45.9596 18.5981 45.5093 18.8559V18.8521ZM50.9819 24.0822C50.9819 24.1207 50.9819 24.163 50.9819 24.2015C52.7099 24.1322 54.434 24.063 56.2274 23.9898C56.1658 23.5049 56.1158 23.1239 56.0581 22.689C54.3147 23.1663 52.6483 23.6242 50.9819 24.0822ZM47.0602 18.0169C47.6029 19.4948 48.1186 20.9033 48.6343 22.3119C48.6689 22.3042 48.6997 22.2926 48.7343 22.2849C48.5996 20.7609 48.465 19.2369 48.3264 17.6552C47.8838 17.7822 47.4836 17.8976 47.0641 18.0169H47.0602ZM42.9423 26.0103C44.6049 25.5523 46.2059 25.1098 47.803 24.6672C47.7992 24.6479 47.7915 24.6287 47.7876 24.6095C46.1251 24.6787 44.4663 24.748 42.7537 24.8211C42.8192 25.2252 42.8769 25.5947 42.9423 26.0103ZM55.5578 21.3536C54.0376 22.1349 52.5944 22.8776 51.1551 23.6165C51.1666 23.655 51.1782 23.6897 51.1897 23.7281C52.7638 23.2971 54.3417 22.8661 55.9773 22.4196C55.831 22.0425 55.704 21.7231 55.5578 21.3536ZM47.5798 25.1405C47.5644 25.1059 47.5529 25.0674 47.5375 25.0328C46.0442 25.4446 44.551 25.8564 43.0154 26.2797C43.1617 26.6415 43.2848 26.9455 43.4195 27.2842C44.8473 26.5491 46.2136 25.8448 47.5798 25.1444V25.1405ZM49.5079 21.8924C49.5656 21.8962 49.6234 21.9001 49.6772 21.9078C49.9582 20.5031 50.2391 19.0984 50.5278 17.6436C50.1352 17.6244 49.7965 17.6051 49.5079 17.5897V21.8924ZM62.1965 26.4067C62.1888 26.4529 62.1849 26.4952 62.1772 26.5414C62.9816 26.7723 63.7898 27.0071 64.6441 27.2534V26.4067H62.1965ZM58.2864 26.3721H60.7379C60.7379 26.3374 60.7379 26.3028 60.7417 26.2682C59.9836 26.0488 59.2254 25.8256 58.4095 25.587C58.3634 25.8795 58.321 26.1373 58.2825 26.3682L58.2864 26.3721ZM62.0349 23.2509H61.1458C61.2613 23.9821 61.3691 24.6749 61.4807 25.3715C61.5153 25.3753 61.5538 25.383 61.5884 25.3869C61.7308 24.698 61.8771 24.0091 62.0349 23.2509ZM64.6672 25.5985C63.9129 25.8063 63.2163 26.0026 62.5198 26.195C62.5236 26.2104 62.5275 26.2297 62.5313 26.2451H64.6672V25.5985ZM50.2314 15.627C50.2314 15.6732 50.2314 15.7232 50.2314 15.7694C50.7895 15.8233 51.3475 15.8733 51.9017 15.9272C52.2404 15.9618 52.3058 15.7809 52.2711 15.4307C51.5707 15.4961 50.9011 15.5616 50.2314 15.627ZM58.4519 27.161C59.1562 26.9648 59.8104 26.7877 60.4647 26.6068C60.4608 26.576 60.4531 26.5453 60.4493 26.5145C59.7411 26.5607 59.033 26.6068 58.2787 26.653C58.3441 26.8377 58.3903 26.9763 58.4557 27.161H58.4519ZM64.6365 25.4638C64.5364 25.2714 64.4633 25.1367 64.3824 24.9866C63.8167 25.2791 63.3049 25.5446 62.7892 25.8102C62.8084 25.8564 62.8276 25.8987 62.8469 25.9449C63.4126 25.7948 63.9784 25.6409 64.6326 25.4677L64.6365 25.4638ZM58.6481 27.7768C59.1985 27.492 59.6911 27.238 60.1837 26.984C60.1683 26.9417 60.1491 26.8955 60.1337 26.8531C59.591 26.9994 59.0445 27.1456 58.4711 27.2996C58.5327 27.4651 58.5789 27.5882 58.6481 27.7729V27.7768ZM60.3107 26.8147C60.3107 26.8147 60.2799 26.8493 60.2645 26.8685C60.2876 26.8762 60.3146 26.8955 60.3377 26.8916C60.3569 26.8916 60.3723 26.8608 60.3877 26.8454C60.3607 26.8377 60.3376 26.8262 60.3107 26.8147ZM62.5775 25.9064C62.5775 25.9256 62.5775 25.9449 62.5813 25.968C62.6275 25.9603 62.6699 25.9526 62.716 25.9449V25.9179C62.6699 25.9141 62.6237 25.9103 62.5775 25.9103V25.9064ZM48.3995 25.1021C48.3995 25.1021 48.3841 25.079 48.3726 25.079C48.3649 25.079 48.3533 25.0905 48.3456 25.0982C48.3533 25.1059 48.361 25.1213 48.3726 25.1213C48.3803 25.1213 48.3918 25.1098 48.3995 25.1021Z" fill="#211951"/>
<path d="M45.0899 30.0303C45.3131 30.1842 45.5325 30.3382 45.7557 30.4921C44.7051 30.5652 43.6583 30.6345 42.6076 30.7115C41.1798 30.8192 39.752 30.9308 38.3242 31.0424C38.3666 30.8616 38.4089 30.6807 38.4512 30.5036C40.6641 30.3459 42.877 30.1919 45.0899 30.0341V30.0303Z" fill="#211951"/>
<path d="M90.2559 10.5964C90.9486 10.3347 91.626 9.96144 92.3418 9.83059C94.1968 9.49962 96.5059 10.9659 96.1133 13.3674C95.9248 14.5142 95.463 15.4109 94.6625 16.1922C94.5239 16.3269 94.4238 16.5001 94.3045 16.654C93.7196 16.6733 93.1346 16.6925 92.5496 16.7079C92.719 16.6078 92.8767 16.4962 93.0538 16.4154C93.7965 16.0652 94.3969 15.5495 94.7895 14.8298C95.1705 14.1332 95.309 13.3866 95.1397 12.6054C94.7086 14.4719 93.6657 15.8381 91.93 16.6694C91.8184 16.7233 91.7491 16.8734 91.6606 16.9773C91.041 17.3698 90.4175 17.7624 89.7979 18.1549C89.0552 18.0126 88.5433 18.3089 88.2277 18.9785C88.0161 19.0478 87.8005 19.1132 87.5889 19.1825C87.8236 18.8862 88.0661 18.5937 88.2893 18.2896C88.3971 18.1396 88.5625 17.9279 88.5279 17.7893C88.3624 17.1312 88.1354 16.4885 87.9314 15.842V15.8497C87.9776 14.9222 87.9506 13.987 88.3316 13.1095C88.7319 12.1859 89.2784 11.37 90.102 10.7658C90.1635 10.7234 90.202 10.6542 90.252 10.5964H90.2559Z" fill="#F50B7A"/>
<path d="M82.2057 21.0577C82.2442 20.9114 82.2635 20.7536 82.3289 20.6189C83.2218 18.7639 83.0909 16.9859 81.9248 15.2887C82.529 14.2419 83.8067 13.5145 85.1345 13.5915C86.67 13.6839 87.4128 14.5921 87.9401 15.8468V15.8391C87.9593 16.7281 87.9901 17.6132 87.5475 18.433C87.3743 18.7524 87.2589 19.0988 87.1165 19.4336H87.1242C87.0972 19.449 87.0664 19.4721 87.0395 19.4913C86.3699 20.0532 85.6964 20.6151 85.0267 21.177C84.9882 21.2116 84.9459 21.2462 84.9074 21.2809H84.9113C84.3263 21.4348 83.7452 21.5926 83.1602 21.7504C83.037 21.7465 82.91 21.7427 82.7869 21.735C82.5945 21.5079 82.402 21.2809 82.2096 21.0538L82.2057 21.0577ZM84.8959 20.0763C85.6001 19.9839 85.9965 19.4451 86.4045 18.9679C87.2666 17.9557 87.409 16.4702 86.747 15.4811C86.747 15.943 86.747 16.3586 86.747 16.7781C86.7393 17.8249 86.2621 18.6562 85.5578 19.3835C85.3346 19.6145 85.1191 19.8492 84.9036 20.084C84.892 20.0878 84.8805 20.0917 84.8689 20.1032C84.8651 20.1071 84.8689 20.1186 84.8689 20.1263C84.8805 20.1109 84.8882 20.0955 84.8997 20.0801L84.8959 20.0763Z" fill="#836FFF"/>
<path d="M94.243 24.5859C94.1738 24.4974 94.1083 24.4089 94.0391 24.3203C94.0391 24.1087 94.0468 23.8932 94.0468 23.6815C94.2469 23.5391 94.4393 23.389 94.651 23.262C96.3713 22.219 97.1641 20.7335 96.8677 18.7092C97.7991 18.2166 98.7574 17.7894 99.8426 17.8779C100.312 17.9164 100.77 18.0549 101.236 18.1512C101.909 18.5283 102.571 18.9247 102.841 19.7098C102.952 20.0331 103.002 20.3794 103.083 20.7143C100.801 20.8336 99.0845 21.8611 98.0069 23.897C97.9068 24.0894 97.8991 24.328 97.8183 24.532C97.7182 24.7822 97.5874 25.0169 97.4681 25.2594C96.3289 25.3363 95.3014 24.8861 94.2392 24.5859H94.243Z" fill="#FF8911"/>
<path d="M96.8719 18.7095C97.1683 20.7299 96.3755 22.2193 94.6552 23.2623C94.4473 23.3893 94.2511 23.5432 94.0509 23.6818C93.8354 23.7433 93.6199 23.8126 93.4005 23.8626C92.9503 23.9589 92.4961 24.0435 92.0459 24.1359C92.2498 23.8165 92.45 23.497 92.6539 23.1776C93.1773 22.9813 93.7046 22.7889 94.228 22.5926C95.1747 22.1424 95.9521 20.9416 95.9175 20.1527C95.4326 20.7184 94.8745 21.3688 94.3165 22.0192C93.9085 22.227 93.5045 22.4425 93.0927 22.635C93.0195 22.6696 92.9079 22.6234 92.8156 22.6119C92.8271 22.3502 92.8425 22.0923 92.8425 21.8306C92.8425 20.5952 92.0767 19.4946 90.8913 19.1405C90.3641 18.9827 89.7945 18.9558 89.2441 18.8673C89.4327 18.6286 89.6174 18.39 89.806 18.1553C90.4256 17.7627 91.0491 17.3702 91.6687 16.9776C91.965 16.8891 92.2614 16.8006 92.5577 16.7121C93.1427 16.6928 93.7277 16.6736 94.3126 16.6582C95.5134 16.9122 96.3447 17.6242 96.8719 18.7133V18.7095Z" fill="#98B7FE"/>
<path d="M97.4727 25.259C97.592 25.0165 97.7228 24.7818 97.8229 24.5316C97.9037 24.3276 97.9114 24.089 98.0114 23.8966C99.089 21.8607 100.805 20.8332 103.088 20.7139C103.58 20.8755 104.096 20.9871 104.558 21.2103C105.855 21.8338 106.363 23.3578 105.716 24.6971C105 26.1826 103.715 26.9408 102.16 27.2679C100.652 27.5835 99.2122 27.2641 97.8306 26.6252C97.7382 26.4982 97.6458 26.375 97.5535 26.248C97.5265 25.9171 97.4996 25.5899 97.4727 25.259ZM100.34 26.4289C102.545 26.8831 104.912 25.6708 104.966 23.9774C103.854 25.74 102.233 26.3481 100.34 26.4289Z" fill="#F50B7A"/>
<path d="M89.2405 18.867C89.7909 18.9555 90.3605 18.9825 90.8877 19.1403C92.073 19.4943 92.8389 20.595 92.8389 21.8304C92.8389 22.0921 92.8197 22.3499 92.812 22.6116C92.7581 22.8002 92.7081 22.9888 92.6542 23.1735C92.4502 23.4929 92.2501 23.8124 92.0461 24.1318C91.8768 24.3473 91.7074 24.5628 91.5381 24.7783C90.8762 24.9015 90.2142 25.0208 89.5484 25.144C89.9333 24.8707 90.3143 24.5936 90.703 24.3281C91.3149 23.9124 91.8652 22.9657 91.8537 22.2191C91.3033 23.1966 90.6183 23.9394 89.6908 24.432C88.7864 24.9092 87.8397 25.2402 86.816 25.3787C87.5626 25.3364 88.3053 25.2979 89.052 25.2556C88.467 25.5942 87.882 25.9329 87.2932 26.2716C87.1392 26.2716 86.9853 26.2716 86.8314 26.2716C86.4965 26.2331 86.1617 26.1946 85.8269 26.16C85.3112 26.006 84.7916 25.8482 84.2759 25.6943C84.1566 25.625 84.0412 25.5558 83.9219 25.4865C83.8988 25.0054 83.8795 24.5243 83.8564 24.0433C83.8718 23.8624 83.8911 23.6854 83.9065 23.5045L83.8949 23.4968C83.9219 23.4352 83.9527 23.3736 83.9796 23.3121C84.2875 22.6309 84.5954 21.9535 84.9032 21.2723H84.8994C84.9379 21.2416 84.9802 21.2069 85.0187 21.1684C85.6883 20.6065 86.3618 20.0447 87.0315 19.4828C87.0584 19.4635 87.0892 19.4404 87.1161 19.4212L87.1084 19.4251C87.2354 19.3596 87.3624 19.2942 87.4933 19.2288C87.5279 19.2057 87.5626 19.1826 87.5934 19.1557V19.171C87.8089 19.1018 88.0205 19.0363 88.2322 18.9671C88.567 18.9286 88.9019 18.894 89.2405 18.8555V18.867Z" fill="#FDBF60"/>
<path d="M35.4996 25.9441C35.8922 26.0211 36.277 26.1173 36.6734 26.1673C36.9621 26.2058 37.0352 26.3367 36.9813 26.5984C36.7004 28.0262 36.4194 29.4501 36.1462 30.8779C35.9769 31.7631 35.8152 32.6521 35.6497 33.5373C34.7453 33.6643 33.8409 33.7913 32.9365 33.9183C32.1476 33.7566 31.3586 33.595 30.5273 33.4257C31.0469 30.724 31.5587 28.0454 32.0744 25.3438C33.2482 25.5477 34.3759 25.744 35.4996 25.9403V25.9441ZM31.909 29.6926C31.7204 30.6586 31.5395 31.5938 31.3548 32.5597C31.8666 32.6521 32.3285 32.7329 32.8403 32.8253C33.0173 31.8478 33.1905 30.9087 33.3637 29.9466C32.8557 29.8581 32.4054 29.7773 31.909 29.6926ZM35.5343 30.4007C34.6055 30.1082 34.0552 30.3751 33.8833 31.2012C33.764 31.79 33.66 32.3866 33.5407 33.0177C34.0718 33.0908 34.5337 33.1563 35.0378 33.2255C35.211 32.2442 35.3726 31.3205 35.5304 30.4007H35.5343ZM33.5292 29.2192C33.6947 28.3456 33.8486 27.5182 34.0103 26.6638C33.433 26.5984 32.9865 26.5445 32.5093 26.4906C32.3554 27.3296 32.2053 28.1455 32.0514 28.9806C32.5863 29.0653 33.0366 29.1384 33.533 29.2154L33.5292 29.2192ZM34.7222 26.8485C34.5529 27.7452 34.4028 28.5457 34.245 29.3962C34.7761 29.4771 35.2379 29.5463 35.7036 29.6195C35.8691 28.7651 36.023 27.9646 36.1885 27.1064C35.6882 27.0179 35.2302 26.9409 34.7222 26.8485Z" fill="#211951"/>
<path d="M10.0293 37.2354C10.2448 36.0924 10.4603 34.9532 10.6682 33.8102C10.7605 33.2984 10.8606 32.7904 10.9299 32.2747C10.9799 31.9283 11.1492 31.8436 11.4725 31.9129C12.6271 32.1631 13.7816 32.4055 14.9362 32.648C15.2594 32.7172 15.5866 32.7711 15.9252 32.8327C15.7059 34.0719 15.4904 35.2804 15.2787 36.4888C14.3012 36.6427 13.3198 36.7928 12.3423 36.9468C12.2961 36.8082 12.2499 36.6697 12.196 36.4965C11.7573 36.4272 11.3032 36.3579 10.8413 36.2848C10.7798 36.6389 10.7336 36.8929 10.6874 37.1469C10.468 37.1777 10.2487 37.2046 10.0293 37.2354ZM13.1466 35.8961C13.5853 36.0116 13.9625 36.1347 14.3473 36.1963C14.4551 36.2117 14.6783 36.0655 14.6976 35.9616C14.8515 35.1995 14.9631 34.4337 15.0901 33.6678C14.5783 33.5986 14.1241 33.5408 13.6892 33.4831C13.5045 34.3028 13.3275 35.0956 13.1466 35.8923V35.8961ZM12.9272 33.2714C12.4154 33.1791 11.942 33.0906 11.4686 33.0059C11.3224 33.841 11.18 34.6607 11.0299 35.5267C11.5264 35.6113 11.9805 35.6922 12.4693 35.7768C12.6232 34.934 12.7694 34.145 12.9311 33.2714H12.9272Z" fill="#211951"/>
<path d="M16.7802 36.2238C16.9342 35.3925 17.0881 34.5612 17.2459 33.7299C17.369 33.0757 17.3883 33.068 18.0348 33.195C19.0585 33.4066 20.0861 33.6183 21.1098 33.8261C21.4947 33.9031 21.8834 33.9685 22.3028 34.0455C22.2143 34.5458 22.1297 35.023 22.0411 35.5002C21.8218 35.531 21.6063 35.5618 21.3869 35.5965C21.3907 35.3501 21.6601 35.0153 21.2984 34.8845C20.9097 34.7421 20.471 34.7267 20.0207 34.6536C19.9437 35.0807 19.8706 35.4656 19.8013 35.8543C19.5512 35.8889 19.301 35.9274 19.0508 35.9621C19.1317 35.4887 19.2086 35.0115 19.2972 34.4765C18.7776 34.3957 18.3081 34.3187 17.8193 34.2418C17.6885 34.9537 17.5769 35.5772 17.4614 36.2007C17.2343 36.2084 17.0034 36.2199 16.7764 36.2276L16.7802 36.2238Z" fill="#211951"/>
<path d="M23.5879 35.2881C23.6418 34.3606 23.6456 34.3336 24.5346 34.476C25.1504 34.5761 25.7546 34.7647 26.3627 34.9148C25.439 35.0379 24.5115 35.1649 23.5879 35.2881Z" fill="#211951"/>
<path d="M51.6172 31.2359C51.7249 31.2051 51.8327 31.1743 51.9443 31.1436C51.8366 31.1743 51.7288 31.2051 51.6172 31.2359Z" fill="#211951"/>
<path d="M82.0392 25.3407C82.0392 25.3407 82.0125 25.3675 82.001 25.379C82.001 25.3713 82.001 25.3599 82.0048 25.3522C82.0125 25.3446 82.0239 25.3407 82.0354 25.3369L82.0392 25.3407Z" fill="#211951"/>
<path d="M86.5624 28.4766C86.5624 28.4766 86.5892 28.4919 86.6007 28.4957C86.5854 28.488 86.5739 28.4842 86.5586 28.4766H86.5624Z" fill="#211951"/>
<path d="M81.8584 26.3592C81.8584 26.3592 81.8278 26.386 81.8125 26.3975C81.824 26.3822 81.8393 26.3669 81.8508 26.3516L81.8584 26.3592Z" fill="#211951"/>
<path d="M89.048 29.5888C89.048 29.5888 89.0212 29.5544 89.0098 29.5391C89.0251 29.5505 89.0442 29.562 89.0595 29.5773L89.048 29.5888Z" fill="#211951"/>
<path d="M12.2083 52.2713C11.277 52.1058 10.3418 51.9442 9.41046 51.7748C8.84858 51.6709 8.29054 51.5632 7.7325 51.4439C7.57856 51.4092 7.43232 51.3245 7.28223 51.263C7.80178 48.5806 8.31748 45.8981 8.84088 43.208C10.4457 43.5043 11.989 43.7814 13.5284 44.0855C13.6169 44.1047 13.7401 44.3549 13.7208 44.4742C13.5284 45.5749 13.3129 46.6755 13.0973 47.7724C12.8049 49.2733 12.5085 50.7704 12.2122 52.2713H12.2083Z" fill="#836FFF"/>
<path d="M112.686 29.1188C112.697 29.0958 112.709 29.0767 112.72 29.0537C112.709 29.0767 112.701 29.0996 112.689 29.1226L112.686 29.1188Z" fill="#211951"/>
<path d="M55.084 11.3202C55.084 11.3202 55.0534 11.347 55.0381 11.3623C55.0381 11.3508 55.0381 11.3394 55.0457 11.3317C55.0572 11.3241 55.0687 11.3202 55.084 11.3164L55.0878 11.3202H55.084Z" fill="#211951"/>
<path d="M55.0811 11.3165C55.0811 11.3165 55.1117 11.2897 55.1231 11.2744C55.1117 11.2897 55.0964 11.305 55.0849 11.3203L55.0811 11.3165Z" fill="#211951"/>
<path d="M80.3809 15.1873C80.3809 15.1873 80.3581 15.1835 80.3467 15.1797C80.3581 15.1835 80.3657 15.1873 80.3771 15.1949L80.3809 15.1873Z" fill="#211951"/>
<path d="M100.597 34.0147C100.597 34.0147 100.604 33.9919 100.612 33.9805C100.604 33.9919 100.6 33.9995 100.593 34.0109L100.6 34.0185L100.597 34.0147Z" fill="#211951"/>
<path d="M102.767 33.7796C102.728 33.745 102.69 33.7104 102.655 33.6719C102.713 33.6834 102.771 33.6988 102.825 33.7104C102.805 33.7335 102.786 33.7565 102.767 33.7796Z" fill="#211951"/>
<path d="M54.6227 29.4007C56.1968 29.2776 57.7708 29.1544 59.3449 29.0312C59.5219 29.1544 59.7028 29.2737 59.8798 29.3969C57.9671 29.547 56.0582 29.697 54.1455 29.8471C54.3033 29.697 54.4649 29.5508 54.6227 29.4007Z" fill="#211951"/>
<path d="M50.1055 30.1351C49.5205 30.1928 48.9355 30.2505 48.3467 30.3083C48.3775 30.1582 48.4083 30.0081 48.439 29.858C48.9894 29.8272 49.5397 29.7964 50.0901 29.7656C50.0939 29.8888 50.1016 30.0119 50.1055 30.1351Z" fill="#211951"/>
<path d="M46.6333 29.9471C47.1182 29.9241 47.607 29.8971 48.0919 29.874C48.0611 30.0241 48.0342 30.1781 48.0034 30.3281C47.5608 30.3589 47.1221 30.3936 46.6795 30.4244C46.2523 30.3051 46.5794 30.1126 46.6333 29.9471Z" fill="#211951"/>
<path d="M52.9569 29.9426C52.4643 29.9772 51.9678 30.0119 51.4752 30.0465C51.4252 29.9195 51.3713 29.7963 51.3213 29.6693C51.7793 29.6347 52.2334 29.6001 52.6914 29.5654C52.7799 29.6886 52.8684 29.8156 52.9569 29.9387V29.9426Z" fill="#211951"/>
<path d="M61.0846 28.8619C61.3232 28.8542 61.5618 28.8465 61.8042 28.835C61.8081 28.9889 61.8119 29.139 61.8158 29.2929C61.5425 29.3006 61.2654 29.3083 60.9922 29.3122C61.023 29.1621 61.0538 29.012 61.0846 28.8619Z" fill="#211951"/>
<path d="M62.374 28.7574C62.5626 28.7458 62.7512 28.7381 62.9398 28.7266C63.0321 28.842 63.1206 28.9575 63.2476 29.1153C62.9936 29.1922 62.8012 29.25 62.5588 29.3192C62.4933 29.1191 62.4356 28.9382 62.374 28.7535V28.7574Z" fill="#211951"/>
<path d="M60.2571 28.9538C60.4649 28.9461 60.6766 28.9423 60.8844 28.9346C60.8383 29.1155 60.7921 29.3002 60.7459 29.4811C60.5612 29.2732 59.9185 29.5157 60.2571 28.95V28.9538Z" fill="#211951"/>
<path d="M51.1444 30.1C50.9481 30.1116 50.7518 30.1193 50.5555 30.1308C50.5325 29.9846 50.5055 29.8345 50.4824 29.6882C50.6556 29.6844 50.8288 29.6767 51.002 29.6729C51.052 29.8152 51.0982 29.9576 51.1482 30.1H51.1444Z" fill="#211951"/>
<path d="M48.2694 23.2959C48.2887 23.3459 48.3079 23.3921 48.3233 23.4421C48.281 23.4191 48.2386 23.3921 48.1963 23.369C48.2194 23.3459 48.2463 23.319 48.2694 23.2959Z" fill="#211951"/>
<path d="M48.62 25.3401C48.62 25.3401 48.6353 25.3133 48.6467 25.3057C48.6506 25.3057 48.662 25.3057 48.6697 25.3095C48.6506 25.3171 48.6314 25.3248 48.6123 25.3324L48.6161 25.3401H48.62Z" fill="#211951"/>
<path d="M48.4081 25.1099C48.4081 25.1099 48.3889 25.129 48.3813 25.129C48.3736 25.129 48.3621 25.1137 48.3545 25.106C48.3621 25.0984 48.3736 25.0869 48.3813 25.0869C48.3889 25.0869 48.4004 25.1022 48.4081 25.1099Z" fill="#211951"/>
<path d="M84.8949 20.078C84.8949 20.078 84.8757 20.1087 84.8643 20.124C84.8643 20.1163 84.8643 20.1048 84.8643 20.101C84.8719 20.0933 84.8872 20.0895 84.8987 20.0819L84.891 20.0742L84.8949 20.078Z" fill="#211951"/>
<path d="M26.7373 18.6053C27.0182 17.1698 27.3107 15.7343 27.5724 14.2988C27.6301 13.9794 27.7417 13.7947 28.0573 13.6677C28.6307 13.4367 29.1849 13.2559 29.8238 13.2366C31.0245 13.202 31.7942 13.8832 32.5293 14.6683C32.6063 14.7491 32.6294 14.9261 32.6063 15.0454C32.1444 17.4508 31.6711 19.8561 31.1977 22.2576C31.1592 22.45 31.1015 22.6347 31.0438 22.8656C29.5659 22.6001 28.1073 22.3384 26.6487 22.0767C26.5064 22.0382 26.3601 21.9959 26.1484 21.9381C26.3447 20.8259 26.5371 19.7175 26.7334 18.6053H26.7373ZM31.2016 18.9055C30.8667 18.8324 30.5704 18.79 30.2856 18.7054C29.7045 18.5322 29.6775 18.5437 29.6044 19.1672C29.5967 19.2442 29.5736 19.3173 29.5582 19.3904C29.4197 20.0908 29.285 20.7913 29.1426 21.4956C29.3658 21.5456 29.539 21.5995 29.7199 21.6264C30.0047 21.6687 30.3087 21.7649 30.5704 21.6957C30.6781 21.6687 30.682 21.2685 30.7359 21.0376C30.7474 20.9952 30.7859 20.9568 30.7936 20.9144C30.9283 20.2563 31.0592 19.5982 31.2016 18.9055ZM27.5147 18.1704C27.3145 19.1903 27.1375 20.1101 26.9489 21.0684C27.4377 21.1723 27.8918 21.2723 28.3998 21.3801C28.5922 20.4872 28.7847 19.6175 28.9502 18.7439C28.9694 18.6476 28.8347 18.4514 28.7385 18.4244C28.3613 18.3167 27.9726 18.2628 27.5147 18.1743V18.1704ZM31.7904 15.6342C31.3209 15.5573 30.8513 15.4765 30.3626 15.3956C30.2048 16.0961 30.0393 16.7773 29.9123 17.4661C29.8892 17.6008 29.9893 17.8702 30.0855 17.901C30.4819 18.028 30.9014 18.0858 31.2978 18.1704C31.4671 17.2891 31.6249 16.4925 31.7904 15.6342ZM27.6686 17.4238C28.0804 17.5354 28.4268 17.6586 28.7847 17.7163C28.8924 17.7317 29.1041 17.5931 29.1426 17.4854C29.2619 17.139 29.335 16.7773 29.4081 16.4155C29.4851 16.0229 29.5428 15.6304 29.6121 15.234C29.0733 15.1416 28.6153 15.0608 28.1612 14.98C27.988 15.8344 27.8302 16.6233 27.6686 17.4238Z" fill="#211951"/>
<path d="M18.25 20.4674C17.0839 20.2327 15.9178 19.9979 14.7517 19.767C14.4515 19.7054 14.1513 19.6439 13.8473 19.6092C13.4779 19.5669 13.4009 19.3552 13.4663 19.0358C13.8819 16.9999 14.2976 14.9679 14.7094 12.932C14.7863 12.5587 14.8903 12.1816 14.898 11.8044C14.9057 11.458 15.0788 11.3272 15.3482 11.204C16.2873 10.7692 17.2456 10.5998 18.2462 10.9616C18.708 11.3118 19.1698 11.6582 19.6316 12.0084C19.8626 12.1854 19.9241 12.3971 19.8626 12.6934C19.5123 14.3829 19.1891 16.0763 18.8388 17.7696C18.6541 18.674 18.4424 19.5746 18.2423 20.4751L18.25 20.4674ZM16.98 16.1609C16.8068 17.0923 16.6375 17.9659 16.4951 18.8434C16.4797 18.9319 16.6144 19.1166 16.7068 19.1358C17.0916 19.2167 17.4842 19.2551 17.9075 19.3129C18.0884 18.3546 18.2654 17.4156 18.4501 16.4457C17.9575 16.3495 17.5111 16.2648 16.98 16.1609ZM15.7254 18.878C15.9101 17.9159 16.0872 16.9845 16.2603 16.0724C15.9601 15.9954 15.7138 15.93 15.4637 15.8684C14.8441 15.7261 14.7171 15.8146 14.6517 16.4342C14.6401 16.5419 14.6093 16.6458 14.5901 16.7498C14.4708 17.3732 14.3553 17.9967 14.2283 18.6586C14.7787 18.7394 15.2366 18.8049 15.7254 18.878ZM19.0698 13.2014C18.581 13.1091 18.2269 13.0205 17.8652 12.9821C17.7574 12.9705 17.5496 13.0744 17.5342 13.1552C17.388 13.9095 17.2725 14.6677 17.1378 15.5028C17.6304 15.576 18.0961 15.6452 18.6195 15.7222C18.7734 14.864 18.9197 14.0519 19.0736 13.2053L19.0698 13.2014ZM15.4444 12.4817C15.2674 13.2976 15.1058 14.025 14.9634 14.7601C14.9441 14.8563 15.0327 15.0603 15.1019 15.0757C15.5291 15.1719 15.964 15.2257 16.4335 15.3027C16.5798 14.4483 16.7183 13.6402 16.8607 12.8204C16.3758 12.705 15.9217 12.5972 15.4444 12.4817Z" fill="#211951"/>
<path d="M24.743 21.6451C23.0612 21.3334 21.4525 21.037 19.7861 20.7291C19.9247 19.9825 20.0555 19.2783 20.1864 18.5778C20.5366 16.7305 20.8945 14.8832 21.2332 13.0321C21.2909 12.7165 21.4025 12.5087 21.7412 12.4279C22.3031 12.2932 22.8496 12.0276 23.4191 11.9815C24.5698 11.8852 25.3857 12.5934 26.0939 13.3746C26.2594 13.5555 26.2209 13.9981 26.1631 14.2983C25.736 16.4881 25.2741 18.674 24.8315 20.86C24.7854 21.0986 24.7777 21.3411 24.743 21.6412V21.6451ZM24.2504 20.5637C24.439 19.6439 24.6237 18.7664 24.7854 17.8851C24.8008 17.8081 24.6661 17.6388 24.5775 17.6195C24.1811 17.531 23.7732 17.481 23.3422 17.4117C23.1574 18.3739 22.9804 19.2975 22.788 20.2789C23.2537 20.3712 23.7193 20.4598 24.2504 20.5637ZM22.6263 17.2732C22.1876 17.1847 21.8335 17.0884 21.4756 17.05C21.3486 17.0346 21.1062 17.1385 21.0908 17.227C20.9214 18.0313 20.7791 18.8472 20.6559 19.6593C20.6405 19.7555 20.756 19.9556 20.8329 19.9671C21.2486 20.0287 21.6681 20.048 22.076 20.0826C22.2646 19.1243 22.4416 18.2199 22.6302 17.277L22.6263 17.2732ZM23.9733 14.1443C23.8078 15.0218 23.65 15.8338 23.4923 16.6767C24.0195 16.7806 24.4775 16.8729 24.9739 16.973C25.1394 16.084 25.2934 15.2527 25.455 14.4022C24.9509 14.3137 24.5006 14.2367 23.9772 14.1443H23.9733ZM21.3178 16.2572C21.5718 16.311 21.7951 16.3572 22.0183 16.4073C22.4981 16.5073 22.7918 16.3239 22.8996 15.8569C22.9342 15.7068 22.992 15.5644 23.0189 15.4143C23.1036 14.9564 23.1767 14.4945 23.2613 14.0096C22.8188 13.9365 22.4455 13.8441 22.0683 13.8249C21.9452 13.8172 21.7181 13.975 21.695 14.0904C21.5488 14.7909 21.4448 15.5029 21.3178 16.2533V16.2572Z" fill="#211951"/>
<path d="M26.6514 24.2355C27.5789 24.4164 28.5103 24.6011 29.4377 24.7858C29.8226 24.8628 30.2113 24.9436 30.677 25.0398C30.1613 27.7261 29.6456 30.4008 29.1183 33.1487C28.2678 32.9986 27.4596 32.8523 26.6553 32.7099C25.8432 32.5367 25.035 32.3636 24.1807 32.1827C24.4039 31.0089 24.6232 29.8543 24.8426 28.6998C25.112 27.272 25.3737 25.8403 25.6623 24.4125C25.6854 24.3047 25.8625 24.1624 25.9741 24.1547C26.1973 24.1393 26.4282 24.2047 26.6553 24.2355H26.6514ZM25.0119 31.3052C25.393 31.3783 25.7509 31.4476 26.1088 31.5169C26.3705 31.5669 26.5052 31.4515 26.5514 31.2013C26.6976 30.397 26.8477 29.5926 27.0055 28.7459C26.5283 28.6536 26.0664 28.5612 25.5546 28.4612C25.3737 29.4117 25.1967 30.3431 25.0119 31.3052ZM27.7367 28.8999C27.5481 29.9197 27.3788 30.828 27.2056 31.7593C27.7021 31.8479 28.1716 31.9364 28.6257 32.0172C28.8297 31.0127 29.0183 30.0891 29.2107 29.1423C28.6411 29.05 28.1831 28.9769 27.7405 28.9037L27.7367 28.8999ZM25.6854 27.7954C26.2358 27.8492 26.7014 27.8954 27.1671 27.9416C27.3365 27.0834 27.4942 26.279 27.652 25.4747C27.1633 25.3862 26.7014 25.3015 26.1896 25.2091C26.0164 26.0905 25.8548 26.9256 25.6854 27.7992V27.7954ZM28.3717 25.6517C28.1985 26.5446 28.0446 27.3297 27.8829 28.1648C28.4217 28.2533 28.8874 28.3265 29.3415 28.3996C29.507 27.526 29.6533 26.7293 29.8111 25.9019C29.3184 25.8134 28.8605 25.7364 28.3717 25.6479V25.6517Z" fill="#211951"/>
<path d="M18.2503 31.0747C18.1195 31.0401 17.9848 31.0093 17.8154 30.9631C18.0117 29.9125 18.2041 28.8772 18.3966 27.842C18.689 26.3564 19.0008 24.8709 19.2548 23.3777C19.3356 22.912 19.5704 22.8851 19.9206 22.9543C20.8942 23.1429 21.8679 23.343 22.8416 23.5278C23.3034 23.6163 23.7691 23.6894 24.281 23.7779C23.7691 26.5027 23.2688 29.1813 22.7646 31.8791C21.2252 31.602 19.7397 31.3326 18.2542 31.067L18.2503 31.0747ZM20.8404 30.5282C21.2445 30.6129 21.5985 30.7168 21.9603 30.7515C22.0873 30.763 22.3297 30.636 22.3528 30.5359C22.5337 29.6816 22.6723 28.8156 22.8262 27.9343C22.3798 27.8381 21.9795 27.7419 21.5754 27.6765C21.4985 27.6649 21.333 27.7689 21.3176 27.8381C21.1483 28.7194 20.9982 29.6046 20.8365 30.5244L20.8404 30.5282ZM20.671 27.5033C20.1553 27.4148 19.6858 27.334 19.2047 27.2531C19.0085 28.2345 18.8237 29.1582 18.6352 30.1049C18.8391 30.1511 19.0162 30.1857 19.1932 30.2281C20.0553 30.4282 20.0745 30.432 20.2669 29.5969C20.4247 28.9157 20.5363 28.2268 20.6749 27.5033H20.671ZM21.9872 24.3975C21.8448 25.1557 21.7063 25.8446 21.5947 26.5335C21.5716 26.6643 21.6216 26.9145 21.6832 26.9337C22.1104 27.053 22.553 27.1223 22.9994 27.207C23.1456 26.4604 23.2957 25.8061 23.3919 25.1442C23.415 24.9787 23.315 24.6746 23.1995 24.6362C22.8301 24.5091 22.4298 24.4784 21.9834 24.4014L21.9872 24.3975ZM21.3099 24.2167C20.7826 24.1512 20.2708 24.0897 19.8128 24.0319C19.6396 24.9171 19.4857 25.7022 19.3317 26.4988C19.8782 26.6027 20.3362 26.6913 20.7826 26.7798C20.9558 25.9331 21.1175 25.1403 21.3099 24.2167Z" fill="#211951"/>
<path d="M13.0049 21.6289C14.6598 21.9406 16.2569 22.237 17.9234 22.5526C17.4115 25.2658 16.9073 27.9482 16.3839 30.723C14.7522 30.3958 13.1358 30.0726 11.4463 29.7339C11.9658 27.0284 12.4777 24.3575 13.0011 21.6289H13.0049ZM12.266 28.9257C12.8241 28.9988 13.282 29.0566 13.7708 29.122C13.9517 28.156 14.1287 27.2324 14.3134 26.2471C13.7477 26.174 13.2474 26.1086 12.7971 26.0509C12.6124 27.0476 12.4508 27.9405 12.2699 28.9219L12.266 28.9257ZM16.4725 26.7397C15.976 26.6358 15.5219 26.5396 15.0216 26.4357C14.833 27.3978 14.6521 28.3215 14.4597 29.3029C14.9561 29.3991 15.4257 29.4876 15.9452 29.5877C16.1222 28.6332 16.2916 27.7211 16.4725 26.7397ZM12.9703 25.2889C13.4976 25.3812 13.9555 25.462 14.4173 25.539C14.5828 24.8001 14.7522 24.1189 14.8753 23.43C14.9023 23.2876 14.7907 23.0028 14.6906 22.972C14.3057 22.8604 13.8978 22.8258 13.4591 22.7565C13.2974 23.6032 13.1396 24.4191 12.9742 25.2889H12.9703ZM17.1229 23.48C17.0805 23.4493 17.0574 23.4223 17.0305 23.4185C16.7919 23.3723 16.5494 23.33 16.307 23.2799C15.6604 23.1529 15.6527 23.1529 15.5257 23.8072C15.4026 24.4306 15.2948 25.0541 15.1794 25.6814C15.6142 25.7853 15.9799 25.9008 16.3532 25.9508C16.4532 25.9662 16.6495 25.8084 16.6764 25.7006C16.8458 24.9617 16.9805 24.2151 17.1229 23.48Z" fill="#211951"/>
<path d="M35.5148 14.4633C36.8618 14.2363 37.9086 14.7982 38.7822 15.7526C38.8976 15.8796 38.9631 16.1375 38.9323 16.3106C38.482 18.7468 38.0048 21.1752 37.5507 23.6113C37.4775 24.0115 37.3775 24.2232 36.9003 24.0577C36.4885 23.9153 36.0382 23.8768 35.6033 23.7922C34.7181 23.6151 33.8368 23.4227 32.944 23.2726C32.5668 23.2072 32.4668 23.0686 32.5476 22.6876C32.9478 20.7557 33.325 18.8199 33.7098 16.8841C33.7945 16.453 33.8946 16.0182 33.9292 15.5833C33.9638 15.1484 34.1755 14.9175 34.5681 14.7943C34.8875 14.6943 35.1992 14.575 35.5148 14.4672V14.4633ZM36.0613 19.8166C35.8727 20.7942 35.688 21.7332 35.4955 22.7377C35.9959 22.8223 36.4692 22.8993 36.9734 22.984C37.0773 22.4683 37.1735 22.0065 37.2659 21.5446C37.3582 21.0713 37.4468 20.5979 37.5353 20.1091C37.0388 20.0129 36.5924 19.9244 36.0574 19.8166H36.0613ZM33.8676 19.401C33.6983 20.3131 33.5405 21.1636 33.3904 22.018C33.375 22.1104 33.4135 22.2912 33.452 22.2989C33.8561 22.3721 34.264 22.4567 34.6681 22.4452C34.7605 22.4452 34.8759 22.0911 34.9183 21.8872C35.0761 21.1636 35.2108 20.4324 35.357 19.6743C34.8413 19.578 34.391 19.4972 33.8676 19.401ZM34.5219 16.1413C34.3525 16.9957 34.1871 17.827 34.0139 18.6967C34.5257 18.7929 34.9875 18.8815 35.4879 18.9777C35.6533 18.1233 35.815 17.2959 35.9843 16.4338C35.484 16.3337 35.026 16.2414 34.5219 16.1413ZM37.6931 19.3779C37.8355 18.6121 37.9817 17.9116 38.0895 17.2035C38.1087 17.0765 37.9932 16.8302 37.8932 16.8033C37.5199 16.6916 37.1235 16.6493 36.6924 16.5762C36.5308 17.4383 36.3769 18.2657 36.2152 19.1278C36.7425 19.2163 37.1889 19.2932 37.6931 19.3779Z" fill="#211951"/>
<path d="M87.4932 19.2401C87.5278 19.217 87.5624 19.1939 87.5932 19.167C87.5586 19.1901 87.524 19.2132 87.4932 19.2401Z" fill="#211951"/>
<path d="M62.4776 27.1719C62.5777 27.2411 62.6778 27.3104 62.7817 27.3797C62.7586 27.4066 62.7393 27.4374 62.7163 27.4644C62.6162 27.3874 62.52 27.3143 62.4199 27.2373C62.4392 27.2142 62.4584 27.195 62.4776 27.1719Z" fill="#211951"/>
<path d="M63.1019 27.7485C63.0019 27.6793 62.9018 27.61 62.8018 27.5407C62.8248 27.5138 62.8441 27.483 62.8672 27.4561C62.9672 27.533 63.0635 27.6061 63.1635 27.6831C63.1443 27.7062 63.125 27.7255 63.1058 27.7485H63.1019Z" fill="#211951"/>
<path d="M63.3087 27.8184C63.4088 27.8876 63.5088 27.9569 63.6089 28.0262C63.5896 28.0531 63.5666 28.0839 63.5473 28.1108C63.4473 28.0339 63.351 27.9608 63.251 27.8838C63.2702 27.8607 63.2895 27.8415 63.3087 27.8184Z" fill="#211951"/>
<path d="M62.2698 27.1074C62.2313 27.0612 62.1967 27.0188 62.1582 26.9727C62.2159 26.9957 62.2698 27.0188 62.3275 27.0381C62.3083 27.0612 62.2891 27.0804 62.2698 27.1035V27.1074Z" fill="#211951"/>
<path d="M63.2556 27.8838C63.2055 27.8414 63.1555 27.7953 63.1055 27.7529C63.1247 27.7298 63.144 27.7067 63.1632 27.6875C63.2132 27.7298 63.2633 27.776 63.3133 27.8183C63.294 27.8414 63.2748 27.8645 63.2556 27.8838Z" fill="#211951"/>
<path d="M62.3273 27.041C62.3773 27.0833 62.4273 27.1295 62.4773 27.1718C62.4581 27.1949 62.4389 27.218 62.4196 27.2372C62.3696 27.1949 62.3196 27.1487 62.2695 27.1025C62.2888 27.0794 62.308 27.0564 62.3273 27.0371V27.041Z" fill="#211951"/>
<path d="M59.0479 24.6006C59.1133 24.6314 59.1787 24.666 59.2403 24.6968C59.1749 24.666 59.1094 24.6314 59.0479 24.6006Z" fill="#211951"/>
<path d="M60.249 25.5205C60.3144 25.5513 60.3799 25.5859 60.4414 25.6167C60.376 25.5859 60.3106 25.5513 60.249 25.5205Z" fill="#211951"/>
<path d="M60.8999 27.4561C60.8691 27.5523 60.8383 27.6485 60.8037 27.7408C60.8345 27.6446 60.8653 27.5484 60.8999 27.4561Z" fill="#211951"/>
<path d="M60.5264 27.3715L60.6264 27.2715C60.5918 27.3061 60.561 27.3369 60.5264 27.3715Z" fill="#211951"/>
<path d="M60.249 27.6499L60.3491 27.5498C60.3144 27.5844 60.2837 27.6152 60.249 27.6499Z" fill="#211951"/>
<path d="M63.5786 24.3203L63.4785 24.4204C63.5132 24.3857 63.5439 24.3549 63.5786 24.3203Z" fill="#211951"/>
<path d="M60.6182 25.2441C60.649 25.3096 60.6836 25.375 60.7144 25.4366C60.6836 25.3711 60.649 25.3057 60.6182 25.2441Z" fill="#211951"/>
<mask id="mask0_5001_2890" style="mask-type:alpha" maskUnits="userSpaceOnUse" x="7" y="21" width="98" height="18">
<path d="M97.8307 26.6222C97.2265 26.6568 96.6261 26.6914 95.9949 26.7299C96.1335 27.1918 96.3374 27.3919 96.8224 27.3842C97.9692 27.3649 99.1161 27.4304 100.263 27.4612C101.621 27.4958 102.984 27.5343 104.342 27.5689C104.354 27.6844 104.365 27.796 104.377 27.9114C103.03 27.8806 101.679 27.8537 100.332 27.8229C100.105 27.8191 99.8742 27.7806 99.6472 27.7806C98.5927 27.7767 97.542 27.7806 96.4529 27.7806V28.7927C96.2143 29.9511 95.4985 30.7401 94.4324 31.1673C93.809 31.4174 93.1278 31.529 92.4697 31.7022C91.6038 31.5367 90.7071 31.4598 89.8796 31.175C89.1253 30.9171 88.4749 30.3591 87.7283 30.0705C86.1543 29.4662 84.5494 28.9505 82.9561 28.3963C82.5867 28.2693 82.2172 28.1308 81.8478 27.9999C81.9324 28.2193 82.0671 28.354 82.2172 28.4733C82.7868 28.939 83.3564 29.4008 83.9337 29.8588C84.9535 30.667 85.9734 31.4713 86.9971 32.2795C86.9201 32.368 86.8431 32.4565 86.7623 32.5489C85.1113 31.2558 83.4603 29.9588 81.8093 28.6657C81.4975 28.4194 81.182 28.1808 80.8741 27.9461C80.5277 28.0307 80.2506 28.531 79.8735 28.1154C79.3616 27.5535 78.7689 27.9153 78.2224 27.9499C77.6452 27.9846 77.0756 28.1192 76.5022 28.2116C74.1007 28.5503 71.703 28.889 69.3016 29.2276C68.4587 29.3469 67.6159 29.4585 66.7731 29.5894C65.2067 29.828 63.6442 30.0705 62.0779 30.3129C60.5962 30.5092 59.1145 30.6939 57.6367 30.9056C55.8433 31.1634 54.0499 31.4405 52.2565 31.7138C52.1218 31.733 51.9871 31.7753 51.8562 31.8023C51.2789 31.8754 50.7055 31.9408 50.1282 32.0255C48.2809 32.2872 46.4375 32.5489 44.594 32.8183C43.6281 32.9607 42.6659 33.1223 41.7 33.2763C40.3992 33.4649 39.0984 33.6573 37.7975 33.8459C37.4358 33.8997 37.074 33.9575 36.7123 34.0113C35.9118 34.1268 35.1113 34.2423 34.3069 34.3577C32.5482 34.6002 30.7894 34.8388 29.0306 35.0851C28.8189 35.1159 28.615 35.1582 28.4033 35.1967C27.4219 35.3275 26.4444 35.4584 25.463 35.5931C24.9935 35.6854 24.524 35.7778 24.0545 35.8702C23.8466 35.8971 23.635 35.9241 23.4272 35.951C22.9268 36.0164 22.4227 36.0818 21.9224 36.1473C21.6915 36.1781 21.4606 36.2088 21.2258 36.2396C20.6947 36.3243 20.1636 36.4128 19.6325 36.4975C19.3824 36.5244 19.1322 36.5514 18.882 36.5822C18.4241 36.6476 17.9699 36.713 17.512 36.7784C17.2349 36.8169 16.9578 36.8516 16.6807 36.89C16.1573 36.9632 15.6377 37.0401 15.1143 37.1133C14.895 37.1517 14.6756 37.1864 14.4601 37.2249C13.9367 37.298 13.4133 37.3711 12.8937 37.4442C12.6474 37.4789 12.4011 37.5097 12.1548 37.5443C11.6199 37.6328 11.0888 37.7213 10.5538 37.8137C10.3268 37.8445 10.1036 37.8714 9.8765 37.9022C9.37619 37.9676 8.87589 38.033 8.37558 38.0946C8.12927 38.1293 7.87912 38.1601 7.63281 38.1947C7.66745 37.9984 7.70593 37.8021 7.74057 37.6059C8.00612 37.5712 8.26782 37.5366 8.53337 37.5058C9.03368 37.4211 9.53398 37.3365 10.0304 37.248C10.2498 37.2172 10.4692 37.1902 10.6885 37.1594C11.2389 37.094 11.7931 37.0247 12.3434 36.9593C13.3209 36.8054 14.3023 36.6553 15.2798 36.5013C15.7801 36.4128 16.2843 36.3205 16.7846 36.2319C17.0117 36.2242 17.2426 36.2127 17.4696 36.205C18.0007 36.1242 18.528 36.0434 19.0591 35.9625C19.3092 35.9279 19.5594 35.8894 19.8095 35.8548C20.3368 35.7701 20.8679 35.6855 21.3951 35.6008C21.6145 35.57 21.83 35.5392 22.0494 35.5046C22.5651 35.4353 23.0808 35.366 23.5926 35.2968C24.5163 35.1736 25.4438 35.0466 26.3674 34.9234C26.4636 34.8965 26.556 34.8696 26.6522 34.8426C27.9376 34.6771 29.2269 34.5232 30.5123 34.3423C31.3243 34.2269 32.1287 34.0691 32.9407 33.9267C33.8451 33.7997 34.7495 33.6727 35.6539 33.5457C36.0619 33.4879 36.466 33.4302 36.8739 33.3763C37.2241 33.3148 37.5743 33.2532 37.9245 33.1916C38.6635 33.0915 39.4062 32.9915 40.1451 32.8914C42.3196 32.5912 44.4978 32.2949 46.6722 31.9909C47.6344 31.8562 48.5965 31.6945 49.5548 31.5444C50.2437 31.4444 50.9326 31.3443 51.6214 31.2481C51.7292 31.2173 51.837 31.1865 51.9486 31.1557H51.9409C52.4835 31.098 53.03 31.048 53.5727 30.9749C54.8542 30.8017 56.1396 30.6208 57.4212 30.4361C58.7027 30.2513 59.9843 30.0512 61.2659 29.8588L62.8284 29.5894C64.3985 29.37 65.9649 29.1545 67.5351 28.9351C67.3157 28.8774 67.1002 28.8659 66.8885 28.8813C65.8071 28.9582 64.7257 29.039 63.6481 29.1237C63.8367 28.939 64.0291 28.7543 64.2177 28.5695C65.0643 28.5041 65.911 28.4387 66.7538 28.3656C67.2041 28.3271 67.6544 28.2655 68.1047 28.2116C69.367 28.0962 70.6293 27.9807 71.8955 27.8614C72.9307 27.7652 73.966 27.6613 75.0012 27.5651C76.3713 27.4381 77.7452 27.3572 79.1076 27.1725C79.5117 27.1186 79.9004 26.8069 80.2468 26.5491C80.343 26.4759 80.2853 26.1719 80.2699 25.9756C80.189 25.0327 80.1005 24.0898 80.0159 23.147C80.139 23.1354 80.2583 23.1277 80.3815 23.1162C80.4084 23.17 80.4584 23.2201 80.4661 23.274C80.5354 24.2168 80.597 25.1597 80.6701 26.1026C80.6893 26.3335 80.7355 26.5606 80.7702 26.7915C80.824 26.7992 80.8741 26.8069 80.928 26.8146C81.8016 25.2213 82.1787 23.4394 82.7945 21.7461C82.9176 21.7499 83.0446 21.7538 83.1678 21.7615C83.1216 21.9693 83.087 22.181 83.0216 22.3849C82.7021 23.374 82.375 24.3631 82.0517 25.3483C82.0402 25.3522 82.0286 25.356 82.0209 25.3637C82.0171 25.3676 82.0209 25.3791 82.0171 25.3906C82.0286 25.3791 82.044 25.3637 82.0556 25.3522C82.1595 25.2713 82.2711 25.2059 82.3635 25.1136C82.8869 24.5863 83.4026 24.0514 83.9221 23.5203C83.9067 23.7011 83.8875 23.8782 83.8721 24.0591C83.4988 24.4632 83.1216 24.8595 82.7599 25.2713C82.452 25.6254 82.1633 25.9987 81.867 26.3643C81.8555 26.3797 81.8401 26.3951 81.8285 26.4105C81.8439 26.399 81.8593 26.3836 81.8747 26.372C82.0594 26.3066 82.2519 26.2566 82.4327 26.1757C82.9369 25.9564 83.4372 25.7255 83.9414 25.5023C84.0607 25.5715 84.1761 25.6408 84.2954 25.7101C83.9991 25.8679 83.7104 26.0372 83.4103 26.1796C82.7983 26.4682 82.1826 26.7453 81.5668 27.0263C81.5822 27.0686 81.5976 27.1148 81.613 27.1571L85.8464 26.1757C86.1812 26.2142 86.516 26.2527 86.8508 26.2874C85.8695 26.5452 84.8881 26.7992 83.9029 27.0571C84.5225 27.0917 85.1382 26.9839 85.7386 27.034C86.4429 27.0917 86.8932 26.7569 87.3088 26.2874C87.8938 25.9487 88.4788 25.61 89.0676 25.2713C89.2331 25.2329 89.4024 25.1944 89.5679 25.1597C90.2298 25.0366 90.8918 24.9173 91.5576 24.7941C92.3927 24.6402 93.224 24.4862 94.0591 24.3323C94.1284 24.4208 94.1938 24.5093 94.2631 24.5978C93.9013 24.6979 93.5396 24.8018 93.1778 24.9019C93.1701 24.9442 93.1624 24.9866 93.1509 25.0289C94.0591 25.1328 94.7519 25.6216 95.41 26.1796C95.5062 26.2604 95.6563 26.3258 95.7794 26.3258C96.3759 26.3181 96.9725 26.2874 97.569 26.2643L97.8461 26.6414L97.8307 26.6222ZM89.0599 29.574C89.0599 29.574 89.0253 29.5509 89.0099 29.5355C89.0214 29.5509 89.0368 29.5701 89.0483 29.5855C89.2138 29.7433 89.3639 29.9165 89.541 30.0512C90.5262 30.7786 91.6423 30.9826 92.8391 30.8633C93.4549 30.7593 94.0322 30.5708 94.494 30.1436C94.4786 30.1012 94.4594 30.0589 94.444 30.0166C94.0014 30.1513 93.5588 30.2821 93.1162 30.4168C91.8616 30.4822 90.6609 30.3129 89.541 29.701C89.3986 29.624 89.2215 29.6125 89.0599 29.574ZM86.5622 28.4772C86.5622 28.4772 86.5891 28.4887 86.6045 28.4964C86.593 28.4887 86.5776 28.481 86.566 28.4772C86.4814 28.1539 86.5314 27.6805 86.0734 27.6651C84.8573 27.6228 83.6412 27.6497 82.4558 27.6497C82.7791 27.719 83.1447 27.7998 83.5103 27.8729C84.5263 28.0769 85.5462 28.277 86.566 28.4772H86.5622ZM87.2896 29.5047C87.1857 29.0583 86.9201 28.9236 86.5814 28.8697C86.2659 28.8158 85.9541 28.7389 85.6424 28.6811C85.2729 28.608 84.8996 28.5464 84.5263 28.4772C84.5186 28.508 84.5109 28.5349 84.5032 28.5657C85.4115 28.8736 86.3159 29.1776 87.2934 29.5086L87.2896 29.5047Z" fill="#211951"/>
</mask>
<g mask="url(#mask0_5001_2890)">
<path d="M96.5 28.5C96.5 30.433 94.7614 32 92 32C89.2386 32 86.5 29 86.5 28C86.5 26.067 89.2386 25 92 25C95.5 25 96.5 27 96.5 28.5Z" fill="#98B7FE"/>
</g>
</svg>
