<svg width="40" height="24" viewBox="0 0 40 24" fill="none" xmlns="http://www.w3.org/2000/svg">
<g clip-path="url(#clip0_1112_24007)">
<path d="M15.592 12.0007C15.592 8.17619 17.39 4.78178 20.1489 2.58861C18.1185 0.992185 15.5571 0.0273438 12.7633 0.0273438C6.14507 0.0273438 0.790039 5.3824 0.790039 12.0007C0.790039 18.6189 6.14507 23.9741 12.7633 23.9741C15.5571 23.9741 18.1185 23.0092 20.1489 21.4127C17.3861 19.2505 15.592 15.8252 15.592 12.0007Z" fill="#836FFF"/>
<path d="M39.5082 12.0007C39.5082 18.6189 34.1531 23.9741 27.5349 23.9741C24.7411 23.9741 22.1798 23.0092 20.1494 21.4127C22.9432 19.2157 24.7062 15.8252 24.7062 12.0007C24.7062 8.17619 22.9083 4.78178 20.1494 2.58861C22.176 0.992185 24.7373 0.0273438 27.531 0.0273438C34.1531 0.0273438 39.5082 5.41729 39.5082 12.0007Z" fill="#836FFF"/>
</g>
<defs>
<clipPath id="clip0_1112_24007">
<rect width="38.7586" height="24" fill="white" transform="translate(0.768555)"/>
</clipPath>
</defs>
</svg>
