<svg width="57" height="20" viewBox="0 0 57 20" fill="none" xmlns="http://www.w3.org/2000/svg">
<path d="M37.3933 0.879883C33.41 0.879883 29.8503 2.94506 29.8503 6.76065C29.8503 11.1365 36.1635 11.4386 36.1635 13.6369C36.1635 14.5625 35.1031 15.3911 33.2919 15.3911C30.7215 15.3911 28.8004 14.2334 28.8004 14.2334L27.9783 18.0838C27.9783 18.0838 30.1914 19.0617 33.1296 19.0617C37.4847 19.0617 40.9115 16.8951 40.9115 13.0142C40.9115 8.39046 34.5721 8.09721 34.5721 6.05687C34.5721 5.33173 35.4426 4.53728 37.2486 4.53728C39.2863 4.53728 40.9488 5.37928 40.9488 5.37928L41.7533 1.66047C41.7533 1.66047 39.9444 0.879883 37.3933 0.879883ZM0.94997 1.16055L0.853516 1.72188C0.853516 1.72188 2.52929 2.02865 4.03861 2.64067C5.982 3.34233 6.12037 3.75091 6.44773 5.01968L10.0142 18.7722H14.7951L22.1605 1.16055H17.3906L12.6579 13.1348L10.7267 2.98487C10.5495 1.82326 9.65241 1.16055 8.55433 1.16055H0.94997ZM24.0786 1.16055L20.3367 18.7722H24.8853L28.614 1.16055H24.0786ZM49.4475 1.16055C48.3507 1.16055 47.7695 1.74799 47.3431 2.77437L40.6792 18.7722H45.4491L46.372 16.1059H52.1832L52.7444 18.7722H56.9532L53.2814 1.16055H49.4475ZM50.0678 5.91866L51.4818 12.5275H47.6938L50.0678 5.91866Z" fill="#836FFF"/>
</svg>
