<svg width="41" height="24" viewBox="0 0 41 24" fill="none" xmlns="http://www.w3.org/2000/svg">
<g clip-path="url(#clip0_1112_24012)">
<path d="M15.484 2.98438H18.802V21.7384H15.484V2.98438ZM21.6872 9.33189H25.0052V21.7384H21.6872V9.33189ZM40.0084 21.7384L34.9593 15.1745L39.5757 9.33189H35.6085L31.1363 15.0302V2.98438H27.7462V21.7384H31.1363V15.3187L35.6085 21.7384H40.0084ZM6.97251 9.18763C5.89055 9.18763 4.88072 9.47615 3.94302 9.90894V2.98438H0.625V15.5351C0.625 19.0696 3.4381 21.8827 6.97251 21.8827C10.5069 21.8827 13.32 19.0696 13.32 15.5351C13.32 12.0007 10.4348 9.18763 6.97251 9.18763ZM6.97251 18.5646C5.3135 18.5646 3.94302 17.1942 3.94302 15.5351C3.94302 13.8761 5.3135 12.5056 6.97251 12.5056C8.63152 12.5056 10.002 13.8761 10.002 15.5351C9.92988 17.1942 8.63152 18.5646 6.97251 18.5646Z" fill="#836FFF"/>
<path d="M10.2191 8.03289C11.8524 8.03289 13.1764 6.70884 13.1764 5.07553C13.1764 3.44222 11.8524 2.11816 10.2191 2.11816C8.58578 2.11816 7.26172 3.44222 7.26172 5.07553C7.26172 6.70884 8.58578 8.03289 10.2191 8.03289Z" fill="#836FFF"/>
</g>
<defs>
<clipPath id="clip0_1112_24012">
<rect width="40" height="24" fill="white" transform="translate(0.316406)"/>
</clipPath>
</defs>
</svg>
