<svg width="56" height="23" viewBox="0 0 56 23" fill="none" xmlns="http://www.w3.org/2000/svg">
<path d="M26.7863 11.6194V18.0573H24.71V2.13574H30.1102C31.4248 2.13574 32.6702 2.61939 33.6407 3.51961C34.6102 4.3495 35.0949 5.59596 35.0949 6.91167C35.0949 8.22737 34.6113 9.4035 33.6407 10.3037C32.6713 11.2039 31.4952 11.6876 30.1102 11.6876L26.7863 11.6194ZM26.7863 4.0736V9.61233H30.2487C31.0104 9.61233 31.7721 9.33426 32.2569 8.78244C33.3648 7.7448 33.3648 6.01361 32.325 4.9749L32.2569 4.90457C31.7029 4.35059 31.0104 4.00435 30.2487 4.07468H26.7863V4.0736Z" fill="#836FFF"/>
<path d="M39.8707 6.84375C41.3941 6.84375 42.5702 7.25815 43.4705 8.09021C44.3707 8.9201 44.7851 10.0281 44.7851 11.413V18.0597H42.8472V16.5363H42.7791C41.9492 17.7827 40.7709 18.4059 39.387 18.4059C38.2109 18.4059 37.1711 18.0597 36.3412 17.3683C35.5795 16.6758 35.0947 15.7064 35.0947 14.6687C35.0947 13.5608 35.5102 12.6627 36.3412 11.9692C37.1711 11.2767 38.3472 10.9997 39.7332 10.9997C40.9797 10.9997 41.9492 11.2074 42.7098 11.6922V11.2085C42.7098 10.516 42.4339 9.82465 41.8799 9.40808C41.3259 8.92443 40.6335 8.64635 39.8717 8.64635C38.6956 8.64635 37.7954 9.13 37.1722 10.1006L35.3717 8.99259C36.4786 7.53514 37.9328 6.84375 39.8707 6.84375ZM37.2403 14.7347C37.2403 15.2887 37.5162 15.7724 37.9328 16.0494C38.4164 16.3956 38.9704 16.6033 39.5244 16.6033C40.3543 16.6033 41.1864 16.2571 41.8085 15.635C42.501 15.0106 42.8461 14.2511 42.8461 13.419C42.224 12.9354 41.3227 12.6573 40.1466 12.6573C39.3167 12.6573 38.6231 12.865 38.0702 13.2795C37.5162 13.6268 37.2403 14.1115 37.2403 14.7347Z" fill="#836FFF"/>
<path d="M56.0015 7.18945L49.1492 22.9022H47.0707L49.6328 17.4338L45.1328 7.25762H47.3487L50.6012 15.0794H50.6705L53.8548 7.25762H56.0015V7.18945Z" fill="#836FFF"/>
<path fill-rule="evenodd" clip-rule="evenodd" d="M13.2885 5.87215C12.3201 4.97193 11.0736 4.48828 9.75791 4.48828C7.40457 4.48828 5.32822 6.08098 4.705 8.29366L4.63148 8.23688C4.2198 9.40954 4.22087 10.6515 4.63469 11.7559H4.63685C5.32824 13.9718 7.40459 15.5634 9.75901 15.5634C11.0033 15.5634 12.0431 15.2172 12.873 14.6632L12.8739 14.6639C13.8438 14.0406 14.4655 13.0033 14.6732 11.8958H9.75879V8.36523H18.4115L18.4179 8.42383C18.484 9.02747 18.55 9.63018 18.55 10.2349C18.55 13.0027 17.5794 15.3571 15.8493 16.9487H15.848C14.3236 18.3339 12.2478 19.1632 9.75685 19.1632C6.29663 19.1632 3.18048 17.2253 1.58887 14.1103V14.1095C0.273613 11.4794 0.273763 8.43394 1.58932 5.87207H1.69345C3.22998 2.79654 6.39053 0.887403 9.82716 0.887403C12.0431 0.819237 14.2579 1.71946 15.9199 3.24182L13.2885 5.87215Z" fill="#836FFF"/>
</svg>
