<svg width="42" height="42" viewBox="0 0 42 42" fill="none" xmlns="http://www.w3.org/2000/svg">
<path d="M21 42C32.598 42 42 32.598 42 21C42 9.40202 32.598 0 21 0C9.40202 0 0 9.40202 0 21C0 32.598 9.40202 42 21 42Z" fill="white"/>
<path d="M33.7209 16.9542L36.2549 14.1972H30.6354C27.8221 12.2755 24.4245 11.1562 20.7501 11.1562C17.0803 11.1562 13.6923 12.2779 10.8836 14.1972H5.25L7.78408 16.9542C6.23081 18.3713 5.25706 20.4127 5.25706 22.6793C5.25706 26.9568 8.72504 30.4247 13.0025 30.4247C15.0344 30.4247 16.8857 29.641 18.2677 28.3599L20.7502 31.0629L23.2326 28.3622C24.6147 29.6434 26.4636 30.4247 28.4955 30.4247C32.773 30.4247 36.2456 26.9568 36.2456 22.6793C36.2479 20.4104 35.2742 18.369 33.7209 16.9542ZM13.0048 27.9211C10.1093 27.9211 7.76301 25.5748 7.76301 22.6793C7.76301 19.7839 10.1094 17.4375 13.0048 17.4375C15.9002 17.4375 18.2465 19.7839 18.2465 22.6793C18.2465 25.5748 15.9002 27.9211 13.0048 27.9211ZM20.7525 22.5268C20.7525 19.0776 18.2442 16.1165 14.9335 14.8518C16.7237 14.1033 18.6877 13.688 20.7501 13.688C22.8126 13.688 24.7788 14.1033 26.5691 14.8518C23.2608 16.1189 20.7525 19.0777 20.7525 22.5268ZM28.4979 27.9211C25.6024 27.9211 23.2561 25.5748 23.2561 22.6793C23.2561 19.7839 25.6024 17.4375 28.4979 17.4375C31.3933 17.4375 33.7396 19.7839 33.7396 22.6793C33.7396 25.5748 31.3933 27.9211 28.4979 27.9211ZM28.4979 19.9293C26.9797 19.9293 25.7502 21.1588 25.7502 22.677C25.7502 24.195 26.9797 25.4246 28.4979 25.4246C30.016 25.4246 31.2455 24.195 31.2455 22.677C31.2454 21.1612 30.016 19.9293 28.4979 19.9293ZM15.7524 22.6793C15.7524 24.1974 14.5228 25.4269 13.0048 25.4269C11.4867 25.4269 10.2572 24.1974 10.2572 22.6793C10.2572 21.1612 11.4867 19.9317 13.0048 19.9317C14.5228 19.9293 15.7524 21.1612 15.7524 22.6793Z" fill="#211951"/>
</svg>
