<svg width="42" height="42" viewBox="0 0 42 42" fill="none" xmlns="http://www.w3.org/2000/svg">
<g clip-path="url(#clip0_1112_24062)">
<path d="M21 42C32.598 42 42 32.598 42 21C42 9.40202 32.598 0 21 0C9.40202 0 0 9.40202 0 21C0 32.598 9.40202 42 21 42Z" fill="white"/>
<g clip-path="url(#clip1_1112_24062)">
<path d="M31.6254 21.247C31.6254 20.3323 31.5513 19.6648 31.3908 18.9727H20.957V23.101H27.0814C26.958 24.1269 26.2912 25.672 24.8095 26.7102L24.7887 26.8484L28.0877 29.4067L28.3162 29.4296C30.4153 27.489 31.6254 24.6337 31.6254 21.247Z" fill="#4285F4"/>
<path d="M20.9568 32.1244C23.9573 32.1244 26.4762 31.1355 28.316 29.4298L24.8093 26.7105C23.8709 27.3656 22.6114 27.8229 20.9568 27.8229C18.0181 27.8229 15.5239 25.8824 14.6348 23.2002L14.5045 23.2113L11.0742 25.8688L11.0293 25.9936C12.8567 29.6275 16.6104 32.1244 20.9568 32.1244Z" fill="#34A853"/>
<path d="M14.6346 23.2001C14.4 22.5079 14.2642 21.7662 14.2642 20.9999C14.2642 20.2335 14.4 19.4919 14.6222 18.7998L14.616 18.6523L11.1427 15.9521L11.0291 16.0063C10.2759 17.5142 9.84375 19.2077 9.84375 20.9999C9.84375 22.7922 10.2759 24.4855 11.0291 25.9935L14.6346 23.2001Z" fill="#FBBC05"/>
<path d="M20.9568 14.1774C23.0436 14.1774 24.4512 15.0797 25.2538 15.8337L28.3901 12.7683C26.4639 10.9761 23.9573 9.87598 20.9568 9.87598C16.6104 9.87598 12.8567 12.3728 11.0293 16.0067L14.6224 18.8002C15.5239 16.118 18.0181 14.1774 20.9568 14.1774Z" fill="#EB4335"/>
</g>
</g>
<defs>
<clipPath id="clip0_1112_24062">
<rect width="42" height="42" fill="white"/>
</clipPath>
<clipPath id="clip1_1112_24062">
<rect width="22.3125" height="22.3125" fill="white" transform="translate(9.84375 9.84375)"/>
</clipPath>
</defs>
</svg>
