<svg width="20" height="20" viewBox="0 0 20 20" fill="none" xmlns="http://www.w3.org/2000/svg">
<path d="M11.001 17.938C13.0183 17.6813 14.8621 16.6661 16.1578 15.0988C17.4535 13.5314 18.1037 11.5295 17.9764 9.49997C17.849 7.47041 16.9536 5.56549 15.4722 4.17238C13.9908 2.77927 12.0345 2.00252 10.001 2C7.96494 1.99848 6.00493 2.77334 4.52032 4.16668C3.03571 5.56002 2.13822 7.46699 2.01072 9.49904C1.88322 11.5311 2.53531 13.5353 3.83412 15.1033C5.13293 16.6712 6.98071 17.685 9.00098 17.938V12H7.00098V10H9.00098V8.346C9.00098 7.009 9.14098 6.524 9.40098 6.035C9.65704 5.55115 10.0529 5.15564 10.537 4.9C10.919 4.695 11.394 4.572 12.224 4.519C12.553 4.498 12.979 4.524 13.502 4.599V6.499H13.002C12.085 6.499 11.706 6.542 11.48 6.663C11.3452 6.73241 11.2354 6.84219 11.166 6.977C11.046 7.203 11.002 7.427 11.002 8.345V10H13.502L13.002 12H11.002L11.001 17.938ZM10.001 20C4.47798 20 0.000976562 15.523 0.000976562 10C0.000976562 4.477 4.47798 0 10.001 0C15.524 0 20.001 4.477 20.001 10C20.001 15.523 15.524 20 10.001 20Z" fill="white"/>
</svg>
