<svg width="20" height="20" viewBox="0 0 20 20" fill="none" xmlns="http://www.w3.org/2000/svg">
<path d="M10.001 18C12.1227 18 14.1575 17.1571 15.6578 15.6569C17.1581 14.1566 18.001 12.1217 18.001 10C18.001 7.87827 17.1581 5.84344 15.6578 4.34315C14.1575 2.84285 12.1227 2 10.001 2C7.87924 2 5.84441 2.84285 4.34412 4.34315C2.84383 5.84344 2.00098 7.87827 2.00098 10C2.00098 12.1217 2.84383 14.1566 4.34412 15.6569C5.84441 17.1571 7.87924 18 10.001 18ZM10.001 20C4.47798 20 0.000976562 15.523 0.000976562 10C0.000976562 4.477 4.47798 0 10.001 0C15.524 0 20.001 4.477 20.001 10C20.001 15.523 15.524 20 10.001 20ZM6.89098 11.17L4.39298 10.391C3.85298 10.226 3.84998 9.854 4.51398 9.587L14.247 5.827C14.811 5.597 15.133 5.888 14.95 6.617L13.292 14.437C13.176 14.994 12.841 15.127 12.376 14.87L9.82498 12.982L8.63598 14.13C8.51398 14.248 8.41498 14.349 8.22698 14.374C8.03998 14.4 7.88598 14.344 7.77298 14.034L6.90298 11.163L6.89098 11.17Z" fill="white"/>
</svg>
